solid OpenSCAD_Model
  facet normal 0.7071067811865475 0.7071067811865475 0
    outer loop
      vertex 10 0 25.05
      vertex 0 10 -25.05
      vertex 0 10 25.05
    endloop
  endfacet
  facet normal 0.7071067811865475 0.7071067811865475 0
    outer loop
      vertex 0 10 -25.05
      vertex 10 0 25.05
      vertex 10 0 -25.05
    endloop
  endfacet
  facet normal -0.7071067811865475 0.7071067811865475 0
    outer loop
      vertex -10 0 -25.05
      vertex 0 10 25.05
      vertex 0 10 -25.05
    endloop
  endfacet
  facet normal -0.7071067811865475 0.7071067811865475 0
    outer loop
      vertex 0 10 25.05
      vertex -10 0 -25.05
      vertex -10 0 25.05
    endloop
  endfacet
  facet normal -0.7071067811865475 -0.7071067811865475 0
    outer loop
      vertex 0 -10 -25.05
      vertex -10 0 25.05
      vertex -10 0 -25.05
    endloop
  endfacet
  facet normal -0.7071067811865475 -0.7071067811865475 0
    outer loop
      vertex -10 0 25.05
      vertex 0 -10 -25.05
      vertex 0 -10 25.05
    endloop
  endfacet
  facet normal 0.7071067811865475 -0.7071067811865475 0
    outer loop
      vertex 0 -10 25.05
      vertex 10 0 -25.05
      vertex 10 0 25.05
    endloop
  endfacet
  facet normal 0.7071067811865475 -0.7071067811865475 0
    outer loop
      vertex 10 0 -25.05
      vertex 0 -10 25.05
      vertex 0 -10 -25.05
    endloop
  endfacet
  facet normal 0 0 -1
    outer loop
      vertex 0 -10 -25.05
      vertex 0 10 -25.05
      vertex 10 0 -25.05
    endloop
  endfacet
  facet normal 0 0 -1
    outer loop
      vertex 0 10 -25.05
      vertex 0 -10 -25.05
      vertex -10 0 -25.05
    endloop
  endfacet
  facet normal 0 0 1
    outer loop
      vertex 0 10 25.05
      vertex 0 -10 25.05
      vertex 10 0 25.05
    endloop
  endfacet
  facet normal 0 0 1
    outer loop
      vertex 0 -10 25.05
      vertex 0 10 25.05
      vertex -10 0 25.05
    endloop
  endfacet
endsolid OpenSCAD_Model
