solid OpenSCAD_Model
  facet normal 0 -0.8660254037844386 -0.5000000000000001
    outer loop
      vertex 5 -2.5 4.330127018922193
      vertex 0 0 0
      vertex 5 0 0
    endloop
  endfacet
  facet normal 0 0.5000000000000001 -0.8660254037844386
    outer loop
      vertex 0 0 0
      vertex 5 4.330127018922193 2.5
      vertex 5 0 0
    endloop
  endfacet
  facet normal -1 0 0
    outer loop
      vertex 0 1.8301270189221928 6.830127018922193
      vertex 0 0 0
      vertex 0 -2.5 4.330127018922193
    endloop
  endfacet
  facet normal 0 -0.8660254037844386 -0.5000000000000001
    outer loop
      vertex 0 0 0
      vertex 5 -2.5 4.330127018922193
      vertex 0 -2.5 4.330127018922193
    endloop
  endfacet
  facet normal 0 -0.5000000000000001 0.8660254037844386
    outer loop
      vertex 5 -2.5 4.330127018922193
      vertex 0 1.8301270189221928 6.830127018922193
      vertex 0 -2.5 4.330127018922193
    endloop
  endfacet
  facet normal -1 0 0
    outer loop
      vertex 0 0 0
      vertex 0 1.8301270189221928 6.830127018922193
      vertex 0 4.330127018922193 2.5
    endloop
  endfacet
  facet normal 0 0.5000000000000001 -0.8660254037844386
    outer loop
      vertex 5 4.330127018922193 2.5
      vertex 0 0 0
      vertex 0 4.330127018922193 2.5
    endloop
  endfacet
  facet normal 0 0.8660254037844386 0.5000000000000001
    outer loop
      vertex 0 1.8301270189221928 6.830127018922193
      vertex 5 4.330127018922193 2.5
      vertex 0 4.330127018922193 2.5
    endloop
  endfacet
  facet normal 0 -0.5000000000000001 0.8660254037844386
    outer loop
      vertex 0 1.8301270189221928 6.830127018922193
      vertex 5 -2.5 4.330127018922193
      vertex 5 1.8301270189221928 6.830127018922193
    endloop
  endfacet
  facet normal 0 0.8660254037844386 0.5000000000000001
    outer loop
      vertex 5 4.330127018922193 2.5
      vertex 0 1.8301270189221928 6.830127018922193
      vertex 5 1.8301270189221928 6.830127018922193
    endloop
  endfacet
  facet normal 1 0 0
    outer loop
      vertex 5 0 0
      vertex 5 1.8301270189221928 6.830127018922193
      vertex 5 -2.5 4.330127018922193
    endloop
  endfacet
  facet normal 1 0 0
    outer loop
      vertex 5 1.8301270189221928 6.830127018922193
      vertex 5 0 0
      vertex 5 4.330127018922193 2.5
    endloop
  endfacet
  facet normal -0.7071067811865476 0 -0.7071067811865476
    outer loop
      vertex 10.606601717798213 5 -10.606601717798213
      vertex 14.142135623730951 0 -14.142135623730951
      vertex 10.606601717798213 0 -10.606601717798213
    endloop
  endfacet
  facet normal -0.7071067811865476 0 -0.7071067811865476
    outer loop
      vertex 14.142135623730951 0 -14.142135623730951
      vertex 10.606601717798213 5 -10.606601717798213
      vertex 14.142135623730951 5 -14.142135623730951
    endloop
  endfacet
  facet normal -0.7071067811865476 0 0.7071067811865476
    outer loop
      vertex 10.606601717798213 0 -10.606601717798213
      vertex 14.142135623730951 5 -7.0710678118654755
      vertex 10.606601717798213 5 -10.606601717798213
    endloop
  endfacet
  facet normal -0.7071067811865476 0 0.7071067811865476
    outer loop
      vertex 14.142135623730951 5 -7.0710678118654755
      vertex 10.606601717798213 0 -10.606601717798213
      vertex 14.142135623730951 0 -7.0710678118654755
    endloop
  endfacet
  facet normal 0 -1 0
    outer loop
      vertex 17.67766952966369 0 -10.606601717798213
      vertex 10.606601717798213 0 -10.606601717798213
      vertex 14.142135623730951 0 -14.142135623730951
    endloop
  endfacet
  facet normal 0.7071067811865476 0 -0.7071067811865476
    outer loop
      vertex 14.142135623730951 5 -14.142135623730951
      vertex 17.67766952966369 0 -10.606601717798213
      vertex 14.142135623730951 0 -14.142135623730951
    endloop
  endfacet
  facet normal 0 -1 0
    outer loop
      vertex 10.606601717798213 0 -10.606601717798213
      vertex 17.67766952966369 0 -10.606601717798213
      vertex 14.142135623730951 0 -7.0710678118654755
    endloop
  endfacet
  facet normal 0 1 0
    outer loop
      vertex 10.606601717798213 5 -10.606601717798213
      vertex 17.67766952966369 5 -10.606601717798213
      vertex 14.142135623730951 5 -14.142135623730951
    endloop
  endfacet
  facet normal 0 1 0
    outer loop
      vertex 17.67766952966369 5 -10.606601717798213
      vertex 10.606601717798213 5 -10.606601717798213
      vertex 14.142135623730951 5 -7.0710678118654755
    endloop
  endfacet
  facet normal 0.7071067811865476 0 0.7071067811865476
    outer loop
      vertex 17.67766952966369 5 -10.606601717798213
      vertex 14.142135623730951 0 -7.0710678118654755
      vertex 17.67766952966369 0 -10.606601717798213
    endloop
  endfacet
  facet normal 0.7071067811865476 0 -0.7071067811865476
    outer loop
      vertex 17.67766952966369 0 -10.606601717798213
      vertex 14.142135623730951 5 -14.142135623730951
      vertex 17.67766952966369 5 -10.606601717798213
    endloop
  endfacet
  facet normal 0.7071067811865476 0 0.7071067811865476
    outer loop
      vertex 14.142135623730951 0 -7.0710678118654755
      vertex 17.67766952966369 5 -10.606601717798213
      vertex 14.142135623730951 5 -7.0710678118654755
    endloop
  endfacet
  facet normal 0 0 -1
    outer loop
      vertex 13.169872981077807 32.81088913245535 0
      vertex 15 25.980762113533157 0
      vertex 10.669872981077807 28.480762113533157 0
    endloop
  endfacet
  facet normal -0.5000000000000001 -0.8660254037844386 0
    outer loop
      vertex 10.669872981077807 28.480762113533157 0
      vertex 15 25.980762113533157 5
      vertex 10.669872981077807 28.480762113533157 5
    endloop
  endfacet
  facet normal -0.8660254037844388 0.49999999999999994 0
    outer loop
      vertex 13.169872981077807 32.81088913245535 5
      vertex 10.669872981077807 28.480762113533157 0
      vertex 10.669872981077807 28.480762113533157 5
    endloop
  endfacet
  facet normal -0.8660254037844388 0.49999999999999994 0
    outer loop
      vertex 10.669872981077807 28.480762113533157 0
      vertex 13.169872981077807 32.81088913245535 5
      vertex 13.169872981077807 32.81088913245535 0
    endloop
  endfacet
  facet normal 0 0 1
    outer loop
      vertex 15 25.980762113533157 5
      vertex 13.169872981077807 32.81088913245535 5
      vertex 10.669872981077807 28.480762113533157 5
    endloop
  endfacet
  facet normal 0 0 -1
    outer loop
      vertex 15 25.980762113533157 0
      vertex 13.169872981077807 32.81088913245535 0
      vertex 17.5 30.31088913245535 0
    endloop
  endfacet
  facet normal -0.5000000000000001 -0.8660254037844386 0
    outer loop
      vertex 15 25.980762113533157 5
      vertex 10.669872981077807 28.480762113533157 0
      vertex 15 25.980762113533157 0
    endloop
  endfacet
  facet normal 0.5000000000000001 0.8660254037844386 0
    outer loop
      vertex 13.169872981077807 32.81088913245535 5
      vertex 17.5 30.31088913245535 0
      vertex 13.169872981077807 32.81088913245535 0
    endloop
  endfacet
  facet normal 0 0 1
    outer loop
      vertex 13.169872981077807 32.81088913245535 5
      vertex 15 25.980762113533157 5
      vertex 17.5 30.31088913245535 5
    endloop
  endfacet
  facet normal 0.8660254037844388 -0.49999999999999994 0
    outer loop
      vertex 17.5 30.31088913245535 0
      vertex 15 25.980762113533157 5
      vertex 15 25.980762113533157 0
    endloop
  endfacet
  facet normal 0.5000000000000001 0.8660254037844386 0
    outer loop
      vertex 17.5 30.31088913245535 0
      vertex 13.169872981077807 32.81088913245535 5
      vertex 17.5 30.31088913245535 5
    endloop
  endfacet
  facet normal 0.8660254037844388 -0.49999999999999994 0
    outer loop
      vertex 15 25.980762113533157 5
      vertex 17.5 30.31088913245535 0
      vertex 17.5 30.31088913245535 5
    endloop
  endfacet
endsolid OpenSCAD_Model
