solid JSCAD
facet normal 0.8660253882408142 -0.4999999701976776 0
outer loop
vertex 0 0 5
vertex 0 0 0
vertex 2.5 4.330127239227295 0
endloop
endfacet
facet normal 0 0 -1
outer loop
vertex -4.330127239227295 2.5 0
vertex 2.5 4.330127239227295 0
vertex 0 0 0
endloop
endfacet
facet normal -0.4999999701976776 -0.8660253882408142 0
outer loop
vertex 0 0 5
vertex -4.330127239227295 2.5 5
vertex 0 0 0
endloop
endfacet
facet normal 0 0 1
outer loop
vertex -4.330127239227295 2.5 5
vertex 0 0 5
vertex 2.5 4.330127239227295 5
endloop
endfacet
facet normal -0.4999999701976776 -0.8660253882408142 0
outer loop
vertex -4.330127239227295 2.5 5
vertex -4.330127239227295 2.5 0
vertex 0 0 0
endloop
endfacet
facet normal -0.8660253882408142 0.5 0
outer loop
vertex -4.330127239227295 2.5 5
vertex -1.8301270008087158 6.830127239227295 5
vertex -4.330127239227295 2.5 0
endloop
endfacet
facet normal 0.5 0.8660253882408142 0
outer loop
vertex 2.5 4.330127239227295 5
vertex 2.5 4.330127239227295 0
vertex -1.8301270008087158 6.830127239227295 0
endloop
endfacet
facet normal 0.8660253882408142 -0.4999999701976776 0
outer loop
vertex 2.5 4.330127239227295 5
vertex 0 0 5
vertex 2.5 4.330127239227295 0
endloop
endfacet
facet normal 0 0 -1
outer loop
vertex -1.8301270008087158 6.830127239227295 0
vertex 2.5 4.330127239227295 0
vertex -4.330127239227295 2.5 0
endloop
endfacet
facet normal -0.8660253882408142 0.5 0
outer loop
vertex -1.8301270008087158 6.830127239227295 5
vertex -1.8301270008087158 6.830127239227295 0
vertex -4.330127239227295 2.5 0
endloop
endfacet
facet normal 0 0 1
outer loop
vertex -1.8301270008087158 6.830127239227295 5
vertex -4.330127239227295 2.5 5
vertex 2.5 4.330127239227295 5
endloop
endfacet
facet normal 0.5 0.8660253882408142 0
outer loop
vertex -1.8301270008087158 6.830127239227295 5
vertex 2.5 4.330127239227295 5
vertex -1.8301270008087158 6.830127239227295 0
endloop
endfacet
endsolid JSCAD
