solid OpenSCAD_Model
  facet normal 0.7071067811865476 0.7071067811865476 0
    outer loop
      vertex 27.018666706979275 30.716371707618237 0
      vertex 28.867519207298756 28.867519207298756 0.1
      vertex 28.867519207298756 28.867519207298756 0
    endloop
  endfacet
  facet normal 0.7071067811865476 0.7071067811865476 0
    outer loop
      vertex 27.018666706979275 30.716371707618237 0
      vertex 27.018666706979275 30.716371707618237 0.1
      vertex 28.867519207298756 28.867519207298756 0.1
    endloop
  endfacet
  facet normal 0.8191520440754966 0.5735764366559488 0
    outer loop
      vertex 24.019237883388996 35 0
      vertex 27.018666706979275 30.716371707618237 0.1
      vertex 27.018666706979275 30.716371707618237 0
    endloop
  endfacet
  facet normal 0.8191520440754966 0.5735764366559488 0
    outer loop
      vertex 24.019237883388996 35 0
      vertex 24.019237883388996 35 0.1
      vertex 27.018666706979275 30.716371707618237 0.1
    endloop
  endfacet
  facet normal 0.90630778749011 0.4226182607682515 0
    outer loop
      vertex 21.809221379458904 39.73939570039511 0
      vertex 24.019237883388996 35 0.1
      vertex 24.019237883388996 35 0
    endloop
  endfacet
  facet normal 0.90630778749011 0.4226182607682515 0
    outer loop
      vertex 21.809221379458904 39.73939570039511 0
      vertex 21.809221379458904 39.73939570039511 0.1
      vertex 24.019237883388996 35 0.1
    endloop
  endfacet
  facet normal 0.9659258260962004 0.2588190458223139 0
    outer loop
      vertex 20.455767408013344 44.79055467247963 0
      vertex 21.809221379458904 39.73939570039511 0.1
      vertex 21.809221379458904 39.73939570039511 0
    endloop
  endfacet
  facet normal 0.9659258260962004 0.2588190458223139 0
    outer loop
      vertex 20.455767408013344 44.79055467247963 0
      vertex 20.455767408013344 44.79055467247963 0.1
      vertex 21.809221379458904 39.73939570039511 0.1
    endloop
  endfacet
  facet normal 0.9961946981150361 0.0871557424814437 0
    outer loop
      vertex 20 50 0
      vertex 20.455767408013344 44.79055467247963 0.1
      vertex 20.455767408013344 44.79055467247963 0
    endloop
  endfacet
  facet normal 0.9961946981150361 0.0871557424814437 0
    outer loop
      vertex 20 50 0
      vertex 20 50 0.1
      vertex 20.455767408013344 44.79055467247963 0.1
    endloop
  endfacet
  facet normal 0.9961946981150361 -0.0871557424814437 0
    outer loop
      vertex 20.455767408013344 55.20944532752037 0
      vertex 20 50 0.1
      vertex 20 50 0
    endloop
  endfacet
  facet normal 0.9961946981150361 -0.0871557424814437 0
    outer loop
      vertex 20.455767408013344 55.20944532752037 0
      vertex 20.455767408013344 55.20944532752037 0.1
      vertex 20 50 0.1
    endloop
  endfacet
  facet normal 0.9659258260962004 -0.2588190458223139 0
    outer loop
      vertex 21.809221379458904 60.26060429960489 0
      vertex 20.455767408013344 55.20944532752037 0.1
      vertex 20.455767408013344 55.20944532752037 0
    endloop
  endfacet
  facet normal 0.9659258260962004 -0.2588190458223139 0
    outer loop
      vertex 21.809221379458904 60.26060429960489 0
      vertex 21.809221379458904 60.26060429960489 0.1
      vertex 20.455767408013344 55.20944532752037 0.1
    endloop
  endfacet
  facet normal 0.90630778749011 -0.4226182607682515 0
    outer loop
      vertex 24.019237883388996 65 0
      vertex 21.809221379458904 60.26060429960489 0.1
      vertex 21.809221379458904 60.26060429960489 0
    endloop
  endfacet
  facet normal 0.90630778749011 -0.4226182607682515 0
    outer loop
      vertex 24.019237883388996 65 0
      vertex 24.019237883388996 65 0.1
      vertex 21.809221379458904 60.26060429960489 0.1
    endloop
  endfacet
  facet normal 0.8191520440754966 -0.5735764366559488 0
    outer loop
      vertex 27.018666706979275 69.28362829238176 0
      vertex 24.019237883388996 65 0.1
      vertex 24.019237883388996 65 0
    endloop
  endfacet
  facet normal 0.8191520440754966 -0.5735764366559488 0
    outer loop
      vertex 27.018666706979275 69.28362829238176 0
      vertex 27.018666706979275 69.28362829238176 0.1
      vertex 24.019237883388996 65 0.1
    endloop
  endfacet
  facet normal 0.7071067811865476 -0.7071067811865476 0
    outer loop
      vertex 30.716371707618237 72.98133329302073 0
      vertex 27.018666706979275 69.28362829238176 0.1
      vertex 27.018666706979275 69.28362829238176 0
    endloop
  endfacet
  facet normal 0.7071067811865476 -0.7071067811865476 0
    outer loop
      vertex 30.716371707618237 72.98133329302073 0
      vertex 30.716371707618237 72.98133329302073 0.1
      vertex 27.018666706979275 69.28362829238176 0.1
    endloop
  endfacet
  facet normal 0.5735764366559488 -0.8191520440754966 0
    outer loop
      vertex 35 75.980762116611 0
      vertex 30.716371707618237 72.98133329302073 0.1
      vertex 30.716371707618237 72.98133329302073 0
    endloop
  endfacet
  facet normal 0.5735764366559488 -0.8191520440754966 0
    outer loop
      vertex 35 75.980762116611 0
      vertex 35 75.980762116611 0.1
      vertex 30.716371707618237 72.98133329302073 0.1
    endloop
  endfacet
  facet normal 0.4226182607682515 -0.90630778749011 0
    outer loop
      vertex 39.73939570039511 78.1907786205411 0
      vertex 35 75.980762116611 0.1
      vertex 35 75.980762116611 0
    endloop
  endfacet
  facet normal 0.4226182607682515 -0.90630778749011 0
    outer loop
      vertex 39.73939570039511 78.1907786205411 0
      vertex 39.73939570039511 78.1907786205411 0.1
      vertex 35 75.980762116611 0.1
    endloop
  endfacet
  facet normal 0.2588190458223139 -0.9659258260962004 0
    outer loop
      vertex 44.79055467247963 79.54423259198666 0
      vertex 39.73939570039511 78.1907786205411 0.1
      vertex 39.73939570039511 78.1907786205411 0
    endloop
  endfacet
  facet normal 0.2588190458223139 -0.9659258260962004 0
    outer loop
      vertex 44.79055467247963 79.54423259198666 0
      vertex 44.79055467247963 79.54423259198666 0.1
      vertex 39.73939570039511 78.1907786205411 0.1
    endloop
  endfacet
  facet normal 0.0871557424814437 -0.9961946981150361 0
    outer loop
      vertex 50 80 0
      vertex 44.79055467247963 79.54423259198666 0.1
      vertex 44.79055467247963 79.54423259198666 0
    endloop
  endfacet
  facet normal 0.0871557424814437 -0.9961946981150361 0
    outer loop
      vertex 50 80 0
      vertex 50 80 0.1
      vertex 44.79055467247963 79.54423259198666 0.1
    endloop
  endfacet
  facet normal -0.0871557424814437 -0.9961946981150361 0
    outer loop
      vertex 55.20944532752037 79.54423259198666 0
      vertex 50 80 0.1
      vertex 50 80 0
    endloop
  endfacet
  facet normal -0.0871557424814437 -0.9961946981150361 0
    outer loop
      vertex 55.20944532752037 79.54423259198666 0
      vertex 55.20944532752037 79.54423259198666 0.1
      vertex 50 80 0.1
    endloop
  endfacet
  facet normal -0.2588190458223139 -0.9659258260962004 0
    outer loop
      vertex 60.26060429960489 78.1907786205411 0
      vertex 55.20944532752037 79.54423259198666 0.1
      vertex 55.20944532752037 79.54423259198666 0
    endloop
  endfacet
  facet normal -0.2588190458223139 -0.9659258260962004 0
    outer loop
      vertex 60.26060429960489 78.1907786205411 0
      vertex 60.26060429960489 78.1907786205411 0.1
      vertex 55.20944532752037 79.54423259198666 0.1
    endloop
  endfacet
  facet normal -0.4226182607682515 -0.90630778749011 0
    outer loop
      vertex 65 75.980762116611 0
      vertex 60.26060429960489 78.1907786205411 0.1
      vertex 60.26060429960489 78.1907786205411 0
    endloop
  endfacet
  facet normal -0.4226182607682515 -0.90630778749011 0
    outer loop
      vertex 65 75.980762116611 0
      vertex 65 75.980762116611 0.1
      vertex 60.26060429960489 78.1907786205411 0.1
    endloop
  endfacet
  facet normal -0.5735764366559488 -0.8191520440754966 0
    outer loop
      vertex 69.28362829238176 72.98133329302073 0
      vertex 65 75.980762116611 0.1
      vertex 65 75.980762116611 0
    endloop
  endfacet
  facet normal -0.5735764366559488 -0.8191520440754966 0
    outer loop
      vertex 69.28362829238176 72.98133329302073 0
      vertex 69.28362829238176 72.98133329302073 0.1
      vertex 65 75.980762116611 0.1
    endloop
  endfacet
  facet normal -0.7071067811865476 -0.7071067811865476 0
    outer loop
      vertex 71.13248079270124 71.13248079270124 0
      vertex 69.28362829238176 72.98133329302073 0.1
      vertex 69.28362829238176 72.98133329302073 0
    endloop
  endfacet
  facet normal -0.7071067811865476 -0.7071067811865476 0
    outer loop
      vertex 71.13248079270124 71.13248079270124 0
      vertex 71.13248079270124 71.13248079270124 0.1
      vertex 69.28362829238176 72.98133329302073 0.1
    endloop
  endfacet
  facet normal 0.7071067811865476 -0.7071067811865476 0
    outer loop
      vertex 100 100 0
      vertex 71.13248079270124 71.13248079270124 0.1
      vertex 71.13248079270124 71.13248079270124 0
    endloop
  endfacet
  facet normal 0.7071067811865476 -0.7071067811865476 0
    outer loop
      vertex 100 100 0
      vertex 100 100 0.1
      vertex 71.13248079270124 71.13248079270124 0.1
    endloop
  endfacet
  facet normal 0 1 0
    outer loop
      vertex 0 100 0
      vertex 100 100 0.1
      vertex 100 100 0
    endloop
  endfacet
  facet normal 0 1 0
    outer loop
      vertex 0 100 0
      vertex 0 100 0.1
      vertex 100 100 0.1
    endloop
  endfacet
  facet normal -1 0 0
    outer loop
      vertex 0 0 0
      vertex 0 100 0.1
      vertex 0 100 0
    endloop
  endfacet
  facet normal -1 0 0
    outer loop
      vertex 0 0 0
      vertex 0 0 0.1
      vertex 0 100 0.1
    endloop
  endfacet
  facet normal 0.7071067811865476 -0.7071067811865476 0
    outer loop
      vertex 28.867519207298756 28.867519207298756 0
      vertex 0 0 0.1
      vertex 0 0 0
    endloop
  endfacet
  facet normal 0.7071067811865476 -0.7071067811865476 0
    outer loop
      vertex 28.867519207298756 28.867519207298756 0
      vertex 28.867519207298756 28.867519207298756 0.1
      vertex 0 0 0.1
    endloop
  endfacet
  facet normal -0.7071067811865475 0.7071067811865475 0
    outer loop
      vertex 77.8949693441391 60.8949693441391 0
      vertex 90 73 0.1
      vertex 90 73 0
    endloop
  endfacet
  facet normal -0.7071067811865475 0.7071067811865475 0
    outer loop
      vertex 77.8949693441391 60.8949693441391 0
      vertex 77.8949693441391 60.8949693441391 0.1
      vertex 90 73 0.1
    endloop
  endfacet
  facet normal -0.9063077880928577 -0.42261825947565446 0
    outer loop
      vertex 78.1907786205411 60.26060429960489 0
      vertex 77.8949693441391 60.8949693441391 0.1
      vertex 77.8949693441391 60.8949693441391 0
    endloop
  endfacet
  facet normal -0.9063077880928577 -0.42261825947565446 0
    outer loop
      vertex 78.1907786205411 60.26060429960489 0
      vertex 78.1907786205411 60.26060429960489 0.1
      vertex 77.8949693441391 60.8949693441391 0.1
    endloop
  endfacet
  facet normal -0.9659258260962004 -0.2588190458223139 0
    outer loop
      vertex 79.54423259198666 55.20944532752037 0
      vertex 78.1907786205411 60.26060429960489 0.1
      vertex 78.1907786205411 60.26060429960489 0
    endloop
  endfacet
  facet normal -0.9659258260962004 -0.2588190458223139 0
    outer loop
      vertex 79.54423259198666 55.20944532752037 0
      vertex 79.54423259198666 55.20944532752037 0.1
      vertex 78.1907786205411 60.26060429960489 0.1
    endloop
  endfacet
  facet normal -0.9961946981150361 -0.0871557424814437 0
    outer loop
      vertex 80 50 0
      vertex 79.54423259198666 55.20944532752037 0.1
      vertex 79.54423259198666 55.20944532752037 0
    endloop
  endfacet
  facet normal -0.9961946981150361 -0.0871557424814437 0
    outer loop
      vertex 80 50 0
      vertex 80 50 0.1
      vertex 79.54423259198666 55.20944532752037 0.1
    endloop
  endfacet
  facet normal -0.9961946981150361 0.0871557424814437 0
    outer loop
      vertex 79.54423259198666 44.79055467247963 0
      vertex 80 50 0.1
      vertex 80 50 0
    endloop
  endfacet
  facet normal -0.9961946981150361 0.0871557424814437 0
    outer loop
      vertex 79.54423259198666 44.79055467247963 0
      vertex 79.54423259198666 44.79055467247963 0.1
      vertex 80 50 0.1
    endloop
  endfacet
  facet normal -0.9659258260962004 0.2588190458223139 0
    outer loop
      vertex 78.1907786205411 39.73939570039511 0
      vertex 79.54423259198666 44.79055467247963 0.1
      vertex 79.54423259198666 44.79055467247963 0
    endloop
  endfacet
  facet normal -0.9659258260962004 0.2588190458223139 0
    outer loop
      vertex 78.1907786205411 39.73939570039511 0
      vertex 78.1907786205411 39.73939570039511 0.1
      vertex 79.54423259198666 44.79055467247963 0.1
    endloop
  endfacet
  facet normal -0.9063077914561214 0.4226182522631124 0
    outer loop
      vertex 78.08908583968878 39.521314822137356 0
      vertex 78.1907786205411 39.73939570039511 0.1
      vertex 78.1907786205411 39.73939570039511 0
    endloop
  endfacet
  facet normal -0.9063077914561214 0.4226182522631124 0
    outer loop
      vertex 78.08908583968878 39.521314822137356 0
      vertex 78.08908583968878 39.521314822137356 0.1
      vertex 78.1907786205411 39.73939570039511 0.1
    endloop
  endfacet
  facet normal -0.7071067811865475 -0.7071067811865475 0
    outer loop
      vertex 79.57555554062128 38.03484512120485 0
      vertex 78.08908583968878 39.521314822137356 0.1
      vertex 78.08908583968878 39.521314822137356 0
    endloop
  endfacet
  facet normal -0.7071067811865475 -0.7071067811865475 0
    outer loop
      vertex 79.57555554062128 38.03484512120485 0
      vertex 79.57555554062128 38.03484512120485 0.1
      vertex 78.08908583968878 39.521314822137356 0.1
    endloop
  endfacet
  facet normal -0.819152044785054 -0.5735764356425959 0
    outer loop
      vertex 80.82531754672527 36.25 0
      vertex 79.57555554062128 38.03484512120485 0.1
      vertex 79.57555554062128 38.03484512120485 0
    endloop
  endfacet
  facet normal -0.819152044785054 -0.5735764356425959 0
    outer loop
      vertex 80.82531754672527 36.25 0
      vertex 80.82531754672527 36.25 0.1
      vertex 79.57555554062128 38.03484512120485 0.1
    endloop
  endfacet
  facet normal -0.9063077873227178 -0.4226182611272251 0
    outer loop
      vertex 81.74615775793791 34.27525179088116 0
      vertex 80.82531754672527 36.25 0.1
      vertex 80.82531754672527 36.25 0
    endloop
  endfacet
  facet normal -0.9063077873227178 -0.4226182611272251 0
    outer loop
      vertex 81.74615775793791 34.27525179088116 0
      vertex 81.74615775793791 34.27525179088116 0.1
      vertex 80.82531754672527 36.25 0.1
    endloop
  endfacet
  facet normal -0.9659258262247031 -0.2588190453427348 0
    outer loop
      vertex 82.31009691208601 32.17060221731663 0
      vertex 81.74615775793791 34.27525179088116 0.1
      vertex 81.74615775793791 34.27525179088116 0
    endloop
  endfacet
  facet normal -0.9659258262247031 -0.2588190453427348 0
    outer loop
      vertex 82.31009691208601 32.17060221731663 0
      vertex 82.31009691208601 32.17060221731663 0.1
      vertex 81.74615775793791 34.27525179088116 0.1
    endloop
  endfacet
  facet normal -0.9961946980568965 -0.08715574314598319 0
    outer loop
      vertex 82.5 30 0
      vertex 82.31009691208601 32.17060221731663 0.1
      vertex 82.31009691208601 32.17060221731663 0
    endloop
  endfacet
  facet normal -0.9961946980568965 -0.08715574314598319 0
    outer loop
      vertex 82.5 30 0
      vertex 82.5 30 0.1
      vertex 82.31009691208601 32.17060221731663 0.1
    endloop
  endfacet
  facet normal -0.9961946980568965 0.08715574314598319 0
    outer loop
      vertex 82.31009691208601 27.829397782683372 0
      vertex 82.5 30 0.1
      vertex 82.5 30 0
    endloop
  endfacet
  facet normal -0.9961946980568965 0.08715574314598319 0
    outer loop
      vertex 82.31009691208601 27.829397782683372 0
      vertex 82.31009691208601 27.829397782683372 0.1
      vertex 82.5 30 0.1
    endloop
  endfacet
  facet normal -0.9659258262247031 0.2588190453427348 0
    outer loop
      vertex 81.74615775793791 25.724748209118843 0
      vertex 82.31009691208601 27.829397782683372 0.1
      vertex 82.31009691208601 27.829397782683372 0
    endloop
  endfacet
  facet normal -0.9659258262247031 0.2588190453427348 0
    outer loop
      vertex 81.74615775793791 25.724748209118843 0
      vertex 81.74615775793791 25.724748209118843 0.1
      vertex 82.31009691208601 27.829397782683372 0.1
    endloop
  endfacet
  facet normal -0.9063077873227178 0.4226182611272251 0
    outer loop
      vertex 80.82531754672527 23.75 0
      vertex 81.74615775793791 25.724748209118843 0.1
      vertex 81.74615775793791 25.724748209118843 0
    endloop
  endfacet
  facet normal -0.9063077873227178 0.4226182611272251 0
    outer loop
      vertex 80.82531754672527 23.75 0
      vertex 80.82531754672527 23.75 0.1
      vertex 81.74615775793791 25.724748209118843 0.1
    endloop
  endfacet
  facet normal -0.819152044785054 0.5735764356425959 0
    outer loop
      vertex 79.57555554062128 21.965154878795147 0
      vertex 80.82531754672527 23.75 0.1
      vertex 80.82531754672527 23.75 0
    endloop
  endfacet
  facet normal -0.819152044785054 0.5735764356425959 0
    outer loop
      vertex 79.57555554062128 21.965154878795147 0
      vertex 79.57555554062128 21.965154878795147 0.1
      vertex 80.82531754672527 23.75 0.1
    endloop
  endfacet
  facet normal -0.7071067811865475 0.7071067811865475 0
    outer loop
      vertex 78.03484512120485 20.42444445937872 0
      vertex 79.57555554062128 21.965154878795147 0.1
      vertex 79.57555554062128 21.965154878795147 0
    endloop
  endfacet
  facet normal -0.7071067811865475 0.7071067811865475 0
    outer loop
      vertex 78.03484512120485 20.42444445937872 0
      vertex 78.03484512120485 20.42444445937872 0.1
      vertex 79.57555554062128 21.965154878795147 0.1
    endloop
  endfacet
  facet normal -0.5735764356425959 0.819152044785054 0
    outer loop
      vertex 76.25 19.174682453274727 0
      vertex 78.03484512120485 20.42444445937872 0.1
      vertex 78.03484512120485 20.42444445937872 0
    endloop
  endfacet
  facet normal -0.5735764356425959 0.819152044785054 0
    outer loop
      vertex 76.25 19.174682453274727 0
      vertex 76.25 19.174682453274727 0.1
      vertex 78.03484512120485 20.42444445937872 0.1
    endloop
  endfacet
  facet normal -0.4226182611272251 0.9063077873227178 0
    outer loop
      vertex 74.27525179088116 18.253842242062092 0
      vertex 76.25 19.174682453274727 0.1
      vertex 76.25 19.174682453274727 0
    endloop
  endfacet
  facet normal -0.4226182611272251 0.9063077873227178 0
    outer loop
      vertex 74.27525179088116 18.253842242062092 0
      vertex 74.27525179088116 18.253842242062092 0.1
      vertex 76.25 19.174682453274727 0.1
    endloop
  endfacet
  facet normal -0.2588190453427348 0.9659258262247031 0
    outer loop
      vertex 72.17060221731663 17.68990308791399 0
      vertex 74.27525179088116 18.253842242062092 0.1
      vertex 74.27525179088116 18.253842242062092 0
    endloop
  endfacet
  facet normal -0.2588190453427348 0.9659258262247031 0
    outer loop
      vertex 72.17060221731663 17.68990308791399 0
      vertex 72.17060221731663 17.68990308791399 0.1
      vertex 74.27525179088116 18.253842242062092 0.1
    endloop
  endfacet
  facet normal -0.08715574314598319 0.9961946980568965 0
    outer loop
      vertex 70 17.5 0
      vertex 72.17060221731663 17.68990308791399 0.1
      vertex 72.17060221731663 17.68990308791399 0
    endloop
  endfacet
  facet normal -0.08715574314598319 0.9961946980568965 0
    outer loop
      vertex 70 17.5 0
      vertex 70 17.5 0.1
      vertex 72.17060221731663 17.68990308791399 0.1
    endloop
  endfacet
  facet normal 0.08715574314598319 0.9961946980568965 0
    outer loop
      vertex 67.82939778268337 17.68990308791399 0
      vertex 70 17.5 0.1
      vertex 70 17.5 0
    endloop
  endfacet
  facet normal 0.08715574314598319 0.9961946980568965 0
    outer loop
      vertex 67.82939778268337 17.68990308791399 0
      vertex 67.82939778268337 17.68990308791399 0.1
      vertex 70 17.5 0.1
    endloop
  endfacet
  facet normal 0.2588190453427348 0.9659258262247031 0
    outer loop
      vertex 65.72474820911884 18.253842242062092 0
      vertex 67.82939778268337 17.68990308791399 0.1
      vertex 67.82939778268337 17.68990308791399 0
    endloop
  endfacet
  facet normal 0.2588190453427348 0.9659258262247031 0
    outer loop
      vertex 65.72474820911884 18.253842242062092 0
      vertex 65.72474820911884 18.253842242062092 0.1
      vertex 67.82939778268337 17.68990308791399 0.1
    endloop
  endfacet
  facet normal 0.4226182611272251 0.9063077873227178 0
    outer loop
      vertex 63.75 19.174682453274727 0
      vertex 65.72474820911884 18.253842242062092 0.1
      vertex 65.72474820911884 18.253842242062092 0
    endloop
  endfacet
  facet normal 0.4226182611272251 0.9063077873227178 0
    outer loop
      vertex 63.75 19.174682453274727 0
      vertex 63.75 19.174682453274727 0.1
      vertex 65.72474820911884 18.253842242062092 0.1
    endloop
  endfacet
  facet normal 0.5735764356425959 0.819152044785054 0
    outer loop
      vertex 61.96515487879515 20.42444445937872 0
      vertex 63.75 19.174682453274727 0.1
      vertex 63.75 19.174682453274727 0
    endloop
  endfacet
  facet normal 0.5735764356425959 0.819152044785054 0
    outer loop
      vertex 61.96515487879515 20.42444445937872 0
      vertex 61.96515487879515 20.42444445937872 0.1
      vertex 63.75 19.174682453274727 0.1
    endloop
  endfacet
  facet normal 0.7071067811865475 0.7071067811865475 0
    outer loop
      vertex 60.478685177862644 21.910914160311222 0
      vertex 61.96515487879515 20.42444445937872 0.1
      vertex 61.96515487879515 20.42444445937872 0
    endloop
  endfacet
  facet normal 0.7071067811865475 0.7071067811865475 0
    outer loop
      vertex 60.478685177862644 21.910914160311222 0
      vertex 60.478685177862644 21.910914160311222 0.1
      vertex 61.96515487879515 20.42444445937872 0.1
    endloop
  endfacet
  facet normal -0.4226182522631124 0.9063077914561214 0
    outer loop
      vertex 60.26060429960489 21.809221379458904 0
      vertex 60.478685177862644 21.910914160311222 0.1
      vertex 60.478685177862644 21.910914160311222 0
    endloop
  endfacet
  facet normal -0.4226182522631124 0.9063077914561214 0
    outer loop
      vertex 60.26060429960489 21.809221379458904 0
      vertex 60.26060429960489 21.809221379458904 0.1
      vertex 60.478685177862644 21.910914160311222 0.1
    endloop
  endfacet
  facet normal -0.2588190458223139 0.9659258260962004 0
    outer loop
      vertex 55.20944532752037 20.455767408013344 0
      vertex 60.26060429960489 21.809221379458904 0.1
      vertex 60.26060429960489 21.809221379458904 0
    endloop
  endfacet
  facet normal -0.2588190458223139 0.9659258260962004 0
    outer loop
      vertex 55.20944532752037 20.455767408013344 0
      vertex 55.20944532752037 20.455767408013344 0.1
      vertex 60.26060429960489 21.809221379458904 0.1
    endloop
  endfacet
  facet normal -0.0871557424814437 0.9961946981150361 0
    outer loop
      vertex 50 20 0
      vertex 55.20944532752037 20.455767408013344 0.1
      vertex 55.20944532752037 20.455767408013344 0
    endloop
  endfacet
  facet normal -0.0871557424814437 0.9961946981150361 0
    outer loop
      vertex 50 20 0
      vertex 50 20 0.1
      vertex 55.20944532752037 20.455767408013344 0.1
    endloop
  endfacet
  facet normal 0.0871557424814437 0.9961946981150361 0
    outer loop
      vertex 44.79055467247963 20.455767408013344 0
      vertex 50 20 0.1
      vertex 50 20 0
    endloop
  endfacet
  facet normal 0.0871557424814437 0.9961946981150361 0
    outer loop
      vertex 44.79055467247963 20.455767408013344 0
      vertex 44.79055467247963 20.455767408013344 0.1
      vertex 50 20 0.1
    endloop
  endfacet
  facet normal 0.2588190458223139 0.9659258260962004 0
    outer loop
      vertex 39.73939570039511 21.809221379458904 0
      vertex 44.79055467247963 20.455767408013344 0.1
      vertex 44.79055467247963 20.455767408013344 0
    endloop
  endfacet
  facet normal 0.2588190458223139 0.9659258260962004 0
    outer loop
      vertex 39.73939570039511 21.809221379458904 0
      vertex 39.73939570039511 21.809221379458904 0.1
      vertex 44.79055467247963 20.455767408013344 0.1
    endloop
  endfacet
  facet normal 0.42261825947565446 0.9063077880928577 0
    outer loop
      vertex 39.1050306558609 22.1050306558609 0
      vertex 39.73939570039511 21.809221379458904 0.1
      vertex 39.73939570039511 21.809221379458904 0
    endloop
  endfacet
  facet normal 0.42261825947565446 0.9063077880928577 0
    outer loop
      vertex 39.1050306558609 22.1050306558609 0
      vertex 39.1050306558609 22.1050306558609 0.1
      vertex 39.73939570039511 21.809221379458904 0.1
    endloop
  endfacet
  facet normal -0.7071067811865475 0.7071067811865475 0
    outer loop
      vertex 27 10 0
      vertex 39.1050306558609 22.1050306558609 0.1
      vertex 39.1050306558609 22.1050306558609 0
    endloop
  endfacet
  facet normal -0.7071067811865475 0.7071067811865475 0
    outer loop
      vertex 27 10 0
      vertex 27 10 0.1
      vertex 39.1050306558609 22.1050306558609 0.1
    endloop
  endfacet
  facet normal 0 -1 0
    outer loop
      vertex 90 10 0
      vertex 27 10 0.1
      vertex 27 10 0
    endloop
  endfacet
  facet normal 0 -1 0
    outer loop
      vertex 90 10 0
      vertex 90 10 0.1
      vertex 27 10 0.1
    endloop
  endfacet
  facet normal 1 0 0
    outer loop
      vertex 90 73 0
      vertex 90 10 0.1
      vertex 90 10 0
    endloop
  endfacet
  facet normal 1 0 0
    outer loop
      vertex 90 73 0
      vertex 90 73 0.1
      vertex 90 10 0.1
    endloop
  endfacet
  facet normal 0.9063077873969652 0.4226182609680011 0
    outer loop
      vertex 75.980762116611 65 0
      vertex 77.8949693441391 60.8949693441391 0.1
      vertex 77.8949693441391 60.8949693441391 0
    endloop
  endfacet
  facet normal 0.9063077873969652 0.4226182609680011 0
    outer loop
      vertex 75.980762116611 65 0
      vertex 75.980762116611 65 0.1
      vertex 77.8949693441391 60.8949693441391 0.1
    endloop
  endfacet
  facet normal 0.8191520440754966 0.5735764366559488 0
    outer loop
      vertex 72.98133329302073 69.28362829238176 0
      vertex 75.980762116611 65 0.1
      vertex 75.980762116611 65 0
    endloop
  endfacet
  facet normal 0.8191520440754966 0.5735764366559488 0
    outer loop
      vertex 72.98133329302073 69.28362829238176 0
      vertex 72.98133329302073 69.28362829238176 0.1
      vertex 75.980762116611 65 0.1
    endloop
  endfacet
  facet normal 0.7071067811865476 0.7071067811865476 0
    outer loop
      vertex 71.13248079270124 71.13248079270124 0
      vertex 72.98133329302073 69.28362829238176 0.1
      vertex 72.98133329302073 69.28362829238176 0
    endloop
  endfacet
  facet normal 0.7071067811865476 0.7071067811865476 0
    outer loop
      vertex 71.13248079270124 71.13248079270124 0
      vertex 71.13248079270124 71.13248079270124 0.1
      vertex 72.98133329302073 69.28362829238176 0.1
    endloop
  endfacet
  facet normal -0.7071067811865475 0.7071067811865475 0
    outer loop
      vertex 65 65 0
      vertex 71.13248079270124 71.13248079270124 0.1
      vertex 71.13248079270124 71.13248079270124 0
    endloop
  endfacet
  facet normal -0.7071067811865475 0.7071067811865475 0
    outer loop
      vertex 65 65 0
      vertex 65 65 0.1
      vertex 71.13248079270124 71.13248079270124 0.1
    endloop
  endfacet
  facet normal 0 1 0
    outer loop
      vertex 35 65 0
      vertex 65 65 0.1
      vertex 65 65 0
    endloop
  endfacet
  facet normal 0 1 0
    outer loop
      vertex 35 65 0
      vertex 35 65 0.1
      vertex 65 65 0.1
    endloop
  endfacet
  facet normal -1 0 0
    outer loop
      vertex 35 35 0
      vertex 35 65 0.1
      vertex 35 65 0
    endloop
  endfacet
  facet normal -1 0 0
    outer loop
      vertex 35 35 0
      vertex 35 35 0.1
      vertex 35 65 0.1
    endloop
  endfacet
  facet normal -0.7071067811865475 0.7071067811865475 0
    outer loop
      vertex 28.867519207298756 28.867519207298756 0
      vertex 35 35 0.1
      vertex 35 35 0
    endloop
  endfacet
  facet normal -0.7071067811865475 0.7071067811865475 0
    outer loop
      vertex 28.867519207298756 28.867519207298756 0
      vertex 28.867519207298756 28.867519207298756 0.1
      vertex 35 35 0.1
    endloop
  endfacet
  facet normal -0.7071067811865476 -0.7071067811865476 0
    outer loop
      vertex 30.716371707618237 27.018666706979275 0
      vertex 28.867519207298756 28.867519207298756 0.1
      vertex 28.867519207298756 28.867519207298756 0
    endloop
  endfacet
  facet normal -0.7071067811865476 -0.7071067811865476 0
    outer loop
      vertex 30.716371707618237 27.018666706979275 0
      vertex 30.716371707618237 27.018666706979275 0.1
      vertex 28.867519207298756 28.867519207298756 0.1
    endloop
  endfacet
  facet normal -0.5735764366559488 -0.8191520440754966 0
    outer loop
      vertex 35 24.019237883388996 0
      vertex 30.716371707618237 27.018666706979275 0.1
      vertex 30.716371707618237 27.018666706979275 0
    endloop
  endfacet
  facet normal -0.5735764366559488 -0.8191520440754966 0
    outer loop
      vertex 35 24.019237883388996 0
      vertex 35 24.019237883388996 0.1
      vertex 30.716371707618237 27.018666706979275 0.1
    endloop
  endfacet
  facet normal -0.4226182609680011 -0.9063077873969652 0
    outer loop
      vertex 39.1050306558609 22.1050306558609 0
      vertex 35 24.019237883388996 0.1
      vertex 35 24.019237883388996 0
    endloop
  endfacet
  facet normal -0.4226182609680011 -0.9063077873969652 0
    outer loop
      vertex 39.1050306558609 22.1050306558609 0
      vertex 39.1050306558609 22.1050306558609 0.1
      vertex 35 24.019237883388996 0.1
    endloop
  endfacet
  facet normal 0.7071067811865475 -0.7071067811865475 0
    outer loop
      vertex 77.8949693441391 60.8949693441391 0
      vertex 39.1050306558609 22.1050306558609 0.1
      vertex 39.1050306558609 22.1050306558609 0
    endloop
  endfacet
  facet normal 0.7071067811865475 -0.7071067811865475 0
    outer loop
      vertex 77.8949693441391 60.8949693441391 0
      vertex 77.8949693441391 60.8949693441391 0.1
      vertex 39.1050306558609 22.1050306558609 0.1
    endloop
  endfacet
  facet normal 0.5735764366559488 -0.8191520440754966 0
    outer loop
      vertex 69.28362829238176 27.018666706979275 0
      vertex 65 24.019237883388996 0.1
      vertex 65 24.019237883388996 0
    endloop
  endfacet
  facet normal 0.5735764366559488 -0.8191520440754966 0
    outer loop
      vertex 69.28362829238176 27.018666706979275 0
      vertex 69.28362829238176 27.018666706979275 0.1
      vertex 65 24.019237883388996 0.1
    endloop
  endfacet
  facet normal 0.7071067811865476 -0.7071067811865476 0
    outer loop
      vertex 72.98133329302073 30.716371707618237 0
      vertex 69.28362829238176 27.018666706979275 0.1
      vertex 69.28362829238176 27.018666706979275 0
    endloop
  endfacet
  facet normal 0.7071067811865476 -0.7071067811865476 0
    outer loop
      vertex 72.98133329302073 30.716371707618237 0
      vertex 72.98133329302073 30.716371707618237 0.1
      vertex 69.28362829238176 27.018666706979275 0.1
    endloop
  endfacet
  facet normal 0.8191520440754966 -0.5735764366559488 0
    outer loop
      vertex 75.980762116611 35 0
      vertex 72.98133329302073 30.716371707618237 0.1
      vertex 72.98133329302073 30.716371707618237 0
    endloop
  endfacet
  facet normal 0.8191520440754966 -0.5735764366559488 0
    outer loop
      vertex 75.980762116611 35 0
      vertex 75.980762116611 35 0.1
      vertex 72.98133329302073 30.716371707618237 0.1
    endloop
  endfacet
  facet normal 0.9063077872988136 -0.42261826117848794 0
    outer loop
      vertex 78.08908583968878 39.521314822137356 0
      vertex 75.980762116611 35 0.1
      vertex 75.980762116611 35 0
    endloop
  endfacet
  facet normal 0.9063077872988136 -0.42261826117848794 0
    outer loop
      vertex 78.08908583968878 39.521314822137356 0
      vertex 78.08908583968878 39.521314822137356 0.1
      vertex 75.980762116611 35 0.1
    endloop
  endfacet
  facet normal 0.7071067811865476 0.7071067811865476 0
    outer loop
      vertex 78.03484512120485 39.57555554062128 0
      vertex 78.08908583968878 39.521314822137356 0.1
      vertex 78.08908583968878 39.521314822137356 0
    endloop
  endfacet
  facet normal 0.7071067811865476 0.7071067811865476 0
    outer loop
      vertex 78.03484512120485 39.57555554062128 0
      vertex 78.03484512120485 39.57555554062128 0.1
      vertex 78.08908583968878 39.521314822137356 0.1
    endloop
  endfacet
  facet normal 0.5735764356425959 0.819152044785054 0
    outer loop
      vertex 76.25 40.82531754672527 0
      vertex 78.03484512120485 39.57555554062128 0.1
      vertex 78.03484512120485 39.57555554062128 0
    endloop
  endfacet
  facet normal 0.5735764356425959 0.819152044785054 0
    outer loop
      vertex 76.25 40.82531754672527 0
      vertex 76.25 40.82531754672527 0.1
      vertex 78.03484512120485 39.57555554062128 0.1
    endloop
  endfacet
  facet normal 0.4226182611272251 0.9063077873227178 0
    outer loop
      vertex 74.27525179088116 41.74615775793791 0
      vertex 76.25 40.82531754672527 0.1
      vertex 76.25 40.82531754672527 0
    endloop
  endfacet
  facet normal 0.4226182611272251 0.9063077873227178 0
    outer loop
      vertex 74.27525179088116 41.74615775793791 0
      vertex 74.27525179088116 41.74615775793791 0.1
      vertex 76.25 40.82531754672527 0.1
    endloop
  endfacet
  facet normal 0.2588190453427348 0.9659258262247031 0
    outer loop
      vertex 72.17060221731663 42.31009691208601 0
      vertex 74.27525179088116 41.74615775793791 0.1
      vertex 74.27525179088116 41.74615775793791 0
    endloop
  endfacet
  facet normal 0.2588190453427348 0.9659258262247031 0
    outer loop
      vertex 72.17060221731663 42.31009691208601 0
      vertex 72.17060221731663 42.31009691208601 0.1
      vertex 74.27525179088116 41.74615775793791 0.1
    endloop
  endfacet
  facet normal 0.08715574314598319 0.9961946980568965 0
    outer loop
      vertex 70 42.5 0
      vertex 72.17060221731663 42.31009691208601 0.1
      vertex 72.17060221731663 42.31009691208601 0
    endloop
  endfacet
  facet normal 0.08715574314598319 0.9961946980568965 0
    outer loop
      vertex 70 42.5 0
      vertex 70 42.5 0.1
      vertex 72.17060221731663 42.31009691208601 0.1
    endloop
  endfacet
  facet normal -0.08715574314598319 0.9961946980568965 0
    outer loop
      vertex 67.82939778268337 42.31009691208601 0
      vertex 70 42.5 0.1
      vertex 70 42.5 0
    endloop
  endfacet
  facet normal -0.08715574314598319 0.9961946980568965 0
    outer loop
      vertex 67.82939778268337 42.31009691208601 0
      vertex 67.82939778268337 42.31009691208601 0.1
      vertex 70 42.5 0.1
    endloop
  endfacet
  facet normal -0.2588190453427348 0.9659258262247031 0
    outer loop
      vertex 65.72474820911884 41.74615775793791 0
      vertex 67.82939778268337 42.31009691208601 0.1
      vertex 67.82939778268337 42.31009691208601 0
    endloop
  endfacet
  facet normal -0.2588190453427348 0.9659258262247031 0
    outer loop
      vertex 65.72474820911884 41.74615775793791 0
      vertex 65.72474820911884 41.74615775793791 0.1
      vertex 67.82939778268337 42.31009691208601 0.1
    endloop
  endfacet
  facet normal -0.4226182611272251 0.9063077873227178 0
    outer loop
      vertex 63.75 40.82531754672527 0
      vertex 65.72474820911884 41.74615775793791 0.1
      vertex 65.72474820911884 41.74615775793791 0
    endloop
  endfacet
  facet normal -0.4226182611272251 0.9063077873227178 0
    outer loop
      vertex 63.75 40.82531754672527 0
      vertex 63.75 40.82531754672527 0.1
      vertex 65.72474820911884 41.74615775793791 0.1
    endloop
  endfacet
  facet normal -0.5735764356425959 0.819152044785054 0
    outer loop
      vertex 61.96515487879515 39.57555554062128 0
      vertex 63.75 40.82531754672527 0.1
      vertex 63.75 40.82531754672527 0
    endloop
  endfacet
  facet normal -0.5735764356425959 0.819152044785054 0
    outer loop
      vertex 61.96515487879515 39.57555554062128 0
      vertex 61.96515487879515 39.57555554062128 0.1
      vertex 63.75 40.82531754672527 0.1
    endloop
  endfacet
  facet normal -0.7071067811865475 0.7071067811865475 0
    outer loop
      vertex 60.42444445937872 38.03484512120485 0
      vertex 61.96515487879515 39.57555554062128 0.1
      vertex 61.96515487879515 39.57555554062128 0
    endloop
  endfacet
  facet normal -0.7071067811865475 0.7071067811865475 0
    outer loop
      vertex 60.42444445937872 38.03484512120485 0
      vertex 60.42444445937872 38.03484512120485 0.1
      vertex 61.96515487879515 39.57555554062128 0.1
    endloop
  endfacet
  facet normal -0.819152044785054 0.5735764356425959 0
    outer loop
      vertex 59.17468245327473 36.25 0
      vertex 60.42444445937872 38.03484512120485 0.1
      vertex 60.42444445937872 38.03484512120485 0
    endloop
  endfacet
  facet normal -0.819152044785054 0.5735764356425959 0
    outer loop
      vertex 59.17468245327473 36.25 0
      vertex 59.17468245327473 36.25 0.1
      vertex 60.42444445937872 38.03484512120485 0.1
    endloop
  endfacet
  facet normal -0.9063077873227178 0.4226182611272251 0
    outer loop
      vertex 58.25384224206209 34.27525179088116 0
      vertex 59.17468245327473 36.25 0.1
      vertex 59.17468245327473 36.25 0
    endloop
  endfacet
  facet normal -0.9063077873227178 0.4226182611272251 0
    outer loop
      vertex 58.25384224206209 34.27525179088116 0
      vertex 58.25384224206209 34.27525179088116 0.1
      vertex 59.17468245327473 36.25 0.1
    endloop
  endfacet
  facet normal -0.9659258262247031 0.2588190453427348 0
    outer loop
      vertex 57.68990308791399 32.17060221731663 0
      vertex 58.25384224206209 34.27525179088116 0.1
      vertex 58.25384224206209 34.27525179088116 0
    endloop
  endfacet
  facet normal -0.9659258262247031 0.2588190453427348 0
    outer loop
      vertex 57.68990308791399 32.17060221731663 0
      vertex 57.68990308791399 32.17060221731663 0.1
      vertex 58.25384224206209 34.27525179088116 0.1
    endloop
  endfacet
  facet normal -0.9961946980568965 0.08715574314598319 0
    outer loop
      vertex 57.5 30 0
      vertex 57.68990308791399 32.17060221731663 0.1
      vertex 57.68990308791399 32.17060221731663 0
    endloop
  endfacet
  facet normal -0.9961946980568965 0.08715574314598319 0
    outer loop
      vertex 57.5 30 0
      vertex 57.5 30 0.1
      vertex 57.68990308791399 32.17060221731663 0.1
    endloop
  endfacet
  facet normal -0.9961946980568965 -0.08715574314598319 0
    outer loop
      vertex 57.68990308791399 27.829397782683372 0
      vertex 57.5 30 0.1
      vertex 57.5 30 0
    endloop
  endfacet
  facet normal -0.9961946980568965 -0.08715574314598319 0
    outer loop
      vertex 57.68990308791399 27.829397782683372 0
      vertex 57.68990308791399 27.829397782683372 0.1
      vertex 57.5 30 0.1
    endloop
  endfacet
  facet normal -0.9659258262247031 -0.2588190453427348 0
    outer loop
      vertex 58.25384224206209 25.724748209118843 0
      vertex 57.68990308791399 27.829397782683372 0.1
      vertex 57.68990308791399 27.829397782683372 0
    endloop
  endfacet
  facet normal -0.9659258262247031 -0.2588190453427348 0
    outer loop
      vertex 58.25384224206209 25.724748209118843 0
      vertex 58.25384224206209 25.724748209118843 0.1
      vertex 57.68990308791399 27.829397782683372 0.1
    endloop
  endfacet
  facet normal -0.9063077873227178 -0.4226182611272251 0
    outer loop
      vertex 59.17468245327473 23.75 0
      vertex 58.25384224206209 25.724748209118843 0.1
      vertex 58.25384224206209 25.724748209118843 0
    endloop
  endfacet
  facet normal -0.9063077873227178 -0.4226182611272251 0
    outer loop
      vertex 59.17468245327473 23.75 0
      vertex 59.17468245327473 23.75 0.1
      vertex 58.25384224206209 25.724748209118843 0.1
    endloop
  endfacet
  facet normal -0.819152044785054 -0.5735764356425959 0
    outer loop
      vertex 60.42444445937872 21.965154878795147 0
      vertex 59.17468245327473 23.75 0.1
      vertex 59.17468245327473 23.75 0
    endloop
  endfacet
  facet normal -0.819152044785054 -0.5735764356425959 0
    outer loop
      vertex 60.42444445937872 21.965154878795147 0
      vertex 60.42444445937872 21.965154878795147 0.1
      vertex 59.17468245327473 23.75 0.1
    endloop
  endfacet
  facet normal -0.7071067811865476 -0.7071067811865476 0
    outer loop
      vertex 60.478685177862644 21.910914160311222 0
      vertex 60.42444445937872 21.965154878795147 0.1
      vertex 60.42444445937872 21.965154878795147 0
    endloop
  endfacet
  facet normal -0.7071067811865476 -0.7071067811865476 0
    outer loop
      vertex 60.478685177862644 21.910914160311222 0
      vertex 60.478685177862644 21.910914160311222 0.1
      vertex 60.42444445937872 21.965154878795147 0.1
    endloop
  endfacet
  facet normal 0.42261826117848794 -0.9063077872988136 0
    outer loop
      vertex 65 24.019237883388996 0
      vertex 60.478685177862644 21.910914160311222 0.1
      vertex 60.478685177862644 21.910914160311222 0
    endloop
  endfacet
  facet normal 0.42261826117848794 -0.9063077872988136 0
    outer loop
      vertex 65 24.019237883388996 0
      vertex 65 24.019237883388996 0.1
      vertex 60.478685177862644 21.910914160311222 0.1
    endloop
  endfacet
  facet normal 0 0 -1
    outer loop
      vertex 27.018666706979275 30.716371707618237 0
      vertex 28.867519207298756 28.867519207298756 0
      vertex 0 0 0
    endloop
  endfacet
  facet normal 0 0 -1
    outer loop
      vertex 100 100 0
      vertex 71.13248079270124 71.13248079270124 0
      vertex 69.28362829238176 72.98133329302073 0
    endloop
  endfacet
  facet normal 0 0 -1
    outer loop
      vertex 24.019237883388996 35 0
      vertex 27.018666706979275 30.716371707618237 0
      vertex 0 0 0
    endloop
  endfacet
  facet normal 0 0 -1
    outer loop
      vertex 100 100 0
      vertex 69.28362829238176 72.98133329302073 0
      vertex 65 75.980762116611 0
    endloop
  endfacet
  facet normal 0 0 -1
    outer loop
      vertex 21.809221379458904 39.73939570039511 0
      vertex 24.019237883388996 35 0
      vertex 0 0 0
    endloop
  endfacet
  facet normal 0 0 -1
    outer loop
      vertex 100 100 0
      vertex 65 75.980762116611 0
      vertex 60.26060429960489 78.1907786205411 0
    endloop
  endfacet
  facet normal 0 0 -1
    outer loop
      vertex 20.455767408013344 44.79055467247963 0
      vertex 21.809221379458904 39.73939570039511 0
      vertex 0 0 0
    endloop
  endfacet
  facet normal 0 0 -1
    outer loop
      vertex 20.455767408013344 44.79055467247963 0
      vertex 0 0 0
      vertex 0 100 0
    endloop
  endfacet
  facet normal 0 0 -1
    outer loop
      vertex 20 50 0
      vertex 20.455767408013344 44.79055467247963 0
      vertex 0 100 0
    endloop
  endfacet
  facet normal 0 0 -1
    outer loop
      vertex 20.455767408013344 55.20944532752037 0
      vertex 20 50 0
      vertex 0 100 0
    endloop
  endfacet
  facet normal 0 0 -1
    outer loop
      vertex 21.809221379458904 60.26060429960489 0
      vertex 20.455767408013344 55.20944532752037 0
      vertex 0 100 0
    endloop
  endfacet
  facet normal 0 0 -1
    outer loop
      vertex 24.019237883388996 65 0
      vertex 21.809221379458904 60.26060429960489 0
      vertex 0 100 0
    endloop
  endfacet
  facet normal 0 0 -1
    outer loop
      vertex 27.018666706979275 69.28362829238176 0
      vertex 24.019237883388996 65 0
      vertex 0 100 0
    endloop
  endfacet
  facet normal 0 0 -1
    outer loop
      vertex 30.716371707618237 72.98133329302073 0
      vertex 27.018666706979275 69.28362829238176 0
      vertex 0 100 0
    endloop
  endfacet
  facet normal 0 0 -1
    outer loop
      vertex 35 75.980762116611 0
      vertex 30.716371707618237 72.98133329302073 0
      vertex 0 100 0
    endloop
  endfacet
  facet normal 0 0 -1
    outer loop
      vertex 39.73939570039511 78.1907786205411 0
      vertex 35 75.980762116611 0
      vertex 0 100 0
    endloop
  endfacet
  facet normal 0 0 -1
    outer loop
      vertex 100 100 0
      vertex 60.26060429960489 78.1907786205411 0
      vertex 55.20944532752037 79.54423259198666 0
    endloop
  endfacet
  facet normal 0 0 -1
    outer loop
      vertex 0 100 0
      vertex 100 100 0
      vertex 55.20944532752037 79.54423259198666 0
    endloop
  endfacet
  facet normal 0 0 -1
    outer loop
      vertex 0 100 0
      vertex 55.20944532752037 79.54423259198666 0
      vertex 50 80 0
    endloop
  endfacet
  facet normal 0 0 -1
    outer loop
      vertex 0 100 0
      vertex 50 80 0
      vertex 44.79055467247963 79.54423259198666 0
    endloop
  endfacet
  facet normal 0 0 -1
    outer loop
      vertex 39.73939570039511 78.1907786205411 0
      vertex 0 100 0
      vertex 44.79055467247963 79.54423259198666 0
    endloop
  endfacet
  facet normal 0 0 -1
    outer loop
      vertex 78.1907786205411 60.26060429960489 0
      vertex 77.8949693441391 60.8949693441391 0
      vertex 90 73 0
    endloop
  endfacet
  facet normal 0 0 -1
    outer loop
      vertex 27 10 0
      vertex 39.1050306558609 22.1050306558609 0
      vertex 39.73939570039511 21.809221379458904 0
    endloop
  endfacet
  facet normal 0 0 -1
    outer loop
      vertex 79.57555554062128 38.03484512120485 0
      vertex 78.08908583968878 39.521314822137356 0
      vertex 78.1907786205411 39.73939570039511 0
    endloop
  endfacet
  facet normal 0 0 -1
    outer loop
      vertex 60.26060429960489 21.809221379458904 0
      vertex 60.478685177862644 21.910914160311222 0
      vertex 61.96515487879515 20.42444445937872 0
    endloop
  endfacet
  facet normal 0 0 -1
    outer loop
      vertex 79.54423259198666 55.20944532752037 0
      vertex 78.1907786205411 60.26060429960489 0
      vertex 90 73 0
    endloop
  endfacet
  facet normal 0 0 -1
    outer loop
      vertex 27 10 0
      vertex 39.73939570039511 21.809221379458904 0
      vertex 44.79055467247963 20.455767408013344 0
    endloop
  endfacet
  facet normal 0 0 -1
    outer loop
      vertex 79.57555554062128 38.03484512120485 0
      vertex 78.1907786205411 39.73939570039511 0
      vertex 79.54423259198666 44.79055467247963 0
    endloop
  endfacet
  facet normal 0 0 -1
    outer loop
      vertex 55.20944532752037 20.455767408013344 0
      vertex 60.26060429960489 21.809221379458904 0
      vertex 61.96515487879515 20.42444445937872 0
    endloop
  endfacet
  facet normal 0 0 -1
    outer loop
      vertex 80 50 0
      vertex 79.54423259198666 55.20944532752037 0
      vertex 90 73 0
    endloop
  endfacet
  facet normal 0 0 -1
    outer loop
      vertex 27 10 0
      vertex 44.79055467247963 20.455767408013344 0
      vertex 50 20 0
    endloop
  endfacet
  facet normal 0 0 -1
    outer loop
      vertex 80.82531754672527 36.25 0
      vertex 79.57555554062128 38.03484512120485 0
      vertex 79.54423259198666 44.79055467247963 0
    endloop
  endfacet
  facet normal 0 0 -1
    outer loop
      vertex 55.20944532752037 20.455767408013344 0
      vertex 61.96515487879515 20.42444445937872 0
      vertex 63.75 19.174682453274727 0
    endloop
  endfacet
  facet normal 0 0 -1
    outer loop
      vertex 79.54423259198666 44.79055467247963 0
      vertex 80 50 0
      vertex 90 73 0
    endloop
  endfacet
  facet normal 0 0 -1
    outer loop
      vertex 80.82531754672527 36.25 0
      vertex 79.54423259198666 44.79055467247963 0
      vertex 90 73 0
    endloop
  endfacet
  facet normal 0 0 -1
    outer loop
      vertex 81.74615775793791 34.27525179088116 0
      vertex 80.82531754672527 36.25 0
      vertex 90 73 0
    endloop
  endfacet
  facet normal 0 0 -1
    outer loop
      vertex 81.74615775793791 34.27525179088116 0
      vertex 90 73 0
      vertex 90 10 0
    endloop
  endfacet
  facet normal 0 0 -1
    outer loop
      vertex 82.31009691208601 32.17060221731663 0
      vertex 81.74615775793791 34.27525179088116 0
      vertex 90 10 0
    endloop
  endfacet
  facet normal 0 0 -1
    outer loop
      vertex 82.5 30 0
      vertex 82.31009691208601 32.17060221731663 0
      vertex 90 10 0
    endloop
  endfacet
  facet normal 0 0 -1
    outer loop
      vertex 82.31009691208601 27.829397782683372 0
      vertex 82.5 30 0
      vertex 90 10 0
    endloop
  endfacet
  facet normal 0 0 -1
    outer loop
      vertex 81.74615775793791 25.724748209118843 0
      vertex 82.31009691208601 27.829397782683372 0
      vertex 90 10 0
    endloop
  endfacet
  facet normal 0 0 -1
    outer loop
      vertex 80.82531754672527 23.75 0
      vertex 81.74615775793791 25.724748209118843 0
      vertex 90 10 0
    endloop
  endfacet
  facet normal 0 0 -1
    outer loop
      vertex 79.57555554062128 21.965154878795147 0
      vertex 80.82531754672527 23.75 0
      vertex 90 10 0
    endloop
  endfacet
  facet normal 0 0 -1
    outer loop
      vertex 78.03484512120485 20.42444445937872 0
      vertex 79.57555554062128 21.965154878795147 0
      vertex 90 10 0
    endloop
  endfacet
  facet normal 0 0 -1
    outer loop
      vertex 76.25 19.174682453274727 0
      vertex 78.03484512120485 20.42444445937872 0
      vertex 90 10 0
    endloop
  endfacet
  facet normal 0 0 -1
    outer loop
      vertex 74.27525179088116 18.253842242062092 0
      vertex 76.25 19.174682453274727 0
      vertex 90 10 0
    endloop
  endfacet
  facet normal 0 0 -1
    outer loop
      vertex 72.17060221731663 17.68990308791399 0
      vertex 74.27525179088116 18.253842242062092 0
      vertex 90 10 0
    endloop
  endfacet
  facet normal 0 0 -1
    outer loop
      vertex 70 17.5 0
      vertex 72.17060221731663 17.68990308791399 0
      vertex 90 10 0
    endloop
  endfacet
  facet normal 0 0 -1
    outer loop
      vertex 70 17.5 0
      vertex 90 10 0
      vertex 27 10 0
    endloop
  endfacet
  facet normal 0 0 -1
    outer loop
      vertex 67.82939778268337 17.68990308791399 0
      vertex 70 17.5 0
      vertex 27 10 0
    endloop
  endfacet
  facet normal 0 0 -1
    outer loop
      vertex 67.82939778268337 17.68990308791399 0
      vertex 27 10 0
      vertex 50 20 0
    endloop
  endfacet
  facet normal 0 0 -1
    outer loop
      vertex 65.72474820911884 18.253842242062092 0
      vertex 67.82939778268337 17.68990308791399 0
      vertex 50 20 0
    endloop
  endfacet
  facet normal 0 0 -1
    outer loop
      vertex 65.72474820911884 18.253842242062092 0
      vertex 50 20 0
      vertex 55.20944532752037 20.455767408013344 0
    endloop
  endfacet
  facet normal 0 0 -1
    outer loop
      vertex 65.72474820911884 18.253842242062092 0
      vertex 55.20944532752037 20.455767408013344 0
      vertex 63.75 19.174682453274727 0
    endloop
  endfacet
  facet normal 0 0 -1
    outer loop
      vertex 65 65 0
      vertex 71.13248079270124 71.13248079270124 0
      vertex 72.98133329302073 69.28362829238176 0
    endloop
  endfacet
  facet normal 0 0 -1
    outer loop
      vertex 35 35 0
      vertex 35 65 0
      vertex 65 65 0
    endloop
  endfacet
  facet normal 0 0 -1
    outer loop
      vertex 30.716371707618237 27.018666706979275 0
      vertex 28.867519207298756 28.867519207298756 0
      vertex 35 35 0
    endloop
  endfacet
  facet normal 0 0 -1
    outer loop
      vertex 65 65 0
      vertex 72.98133329302073 69.28362829238176 0
      vertex 75.980762116611 65 0
    endloop
  endfacet
  facet normal 0 0 -1
    outer loop
      vertex 35 24.019237883388996 0
      vertex 30.716371707618237 27.018666706979275 0
      vertex 35 35 0
    endloop
  endfacet
  facet normal 0 0 -1
    outer loop
      vertex 75.980762116611 65 0
      vertex 77.8949693441391 60.8949693441391 0
      vertex 39.1050306558609 22.1050306558609 0
    endloop
  endfacet
  facet normal 0 0 -1
    outer loop
      vertex 75.980762116611 65 0
      vertex 39.1050306558609 22.1050306558609 0
      vertex 35 24.019237883388996 0
    endloop
  endfacet
  facet normal 0 0 -1
    outer loop
      vertex 75.980762116611 65 0
      vertex 35 24.019237883388996 0
      vertex 35 35 0
    endloop
  endfacet
  facet normal 0 0 -1
    outer loop
      vertex 75.980762116611 65 0
      vertex 35 35 0
      vertex 65 65 0
    endloop
  endfacet
  facet normal 0 0 -1
    outer loop
      vertex 78.03484512120485 39.57555554062128 0
      vertex 78.08908583968878 39.521314822137356 0
      vertex 75.980762116611 35 0
    endloop
  endfacet
  facet normal 0 0 -1
    outer loop
      vertex 76.25 40.82531754672527 0
      vertex 78.03484512120485 39.57555554062128 0
      vertex 75.980762116611 35 0
    endloop
  endfacet
  facet normal 0 0 -1
    outer loop
      vertex 65 24.019237883388996 0
      vertex 60.478685177862644 21.910914160311222 0
      vertex 60.42444445937872 21.965154878795147 0
    endloop
  endfacet
  facet normal 0 0 -1
    outer loop
      vertex 65 24.019237883388996 0
      vertex 60.42444445937872 21.965154878795147 0
      vertex 59.17468245327473 23.75 0
    endloop
  endfacet
  facet normal 0 0 -1
    outer loop
      vertex 74.27525179088116 41.74615775793791 0
      vertex 76.25 40.82531754672527 0
      vertex 75.980762116611 35 0
    endloop
  endfacet
  facet normal 0 0 -1
    outer loop
      vertex 65 24.019237883388996 0
      vertex 59.17468245327473 23.75 0
      vertex 58.25384224206209 25.724748209118843 0
    endloop
  endfacet
  facet normal 0 0 -1
    outer loop
      vertex 72.17060221731663 42.31009691208601 0
      vertex 74.27525179088116 41.74615775793791 0
      vertex 75.980762116611 35 0
    endloop
  endfacet
  facet normal 0 0 -1
    outer loop
      vertex 72.17060221731663 42.31009691208601 0
      vertex 75.980762116611 35 0
      vertex 72.98133329302073 30.716371707618237 0
    endloop
  endfacet
  facet normal 0 0 -1
    outer loop
      vertex 70 42.5 0
      vertex 72.17060221731663 42.31009691208601 0
      vertex 72.98133329302073 30.716371707618237 0
    endloop
  endfacet
  facet normal 0 0 -1
    outer loop
      vertex 67.82939778268337 42.31009691208601 0
      vertex 70 42.5 0
      vertex 72.98133329302073 30.716371707618237 0
    endloop
  endfacet
  facet normal 0 0 -1
    outer loop
      vertex 65.72474820911884 41.74615775793791 0
      vertex 67.82939778268337 42.31009691208601 0
      vertex 72.98133329302073 30.716371707618237 0
    endloop
  endfacet
  facet normal 0 0 -1
    outer loop
      vertex 63.75 40.82531754672527 0
      vertex 65.72474820911884 41.74615775793791 0
      vertex 72.98133329302073 30.716371707618237 0
    endloop
  endfacet
  facet normal 0 0 -1
    outer loop
      vertex 63.75 40.82531754672527 0
      vertex 72.98133329302073 30.716371707618237 0
      vertex 69.28362829238176 27.018666706979275 0
    endloop
  endfacet
  facet normal 0 0 -1
    outer loop
      vertex 61.96515487879515 39.57555554062128 0
      vertex 63.75 40.82531754672527 0
      vertex 69.28362829238176 27.018666706979275 0
    endloop
  endfacet
  facet normal 0 0 -1
    outer loop
      vertex 60.42444445937872 38.03484512120485 0
      vertex 61.96515487879515 39.57555554062128 0
      vertex 69.28362829238176 27.018666706979275 0
    endloop
  endfacet
  facet normal 0 0 -1
    outer loop
      vertex 59.17468245327473 36.25 0
      vertex 60.42444445937872 38.03484512120485 0
      vertex 69.28362829238176 27.018666706979275 0
    endloop
  endfacet
  facet normal 0 0 -1
    outer loop
      vertex 58.25384224206209 34.27525179088116 0
      vertex 59.17468245327473 36.25 0
      vertex 69.28362829238176 27.018666706979275 0
    endloop
  endfacet
  facet normal 0 0 -1
    outer loop
      vertex 57.68990308791399 32.17060221731663 0
      vertex 58.25384224206209 34.27525179088116 0
      vertex 69.28362829238176 27.018666706979275 0
    endloop
  endfacet
  facet normal 0 0 -1
    outer loop
      vertex 57.5 30 0
      vertex 57.68990308791399 32.17060221731663 0
      vertex 69.28362829238176 27.018666706979275 0
    endloop
  endfacet
  facet normal 0 0 -1
    outer loop
      vertex 65 24.019237883388996 0
      vertex 58.25384224206209 25.724748209118843 0
      vertex 57.68990308791399 27.829397782683372 0
    endloop
  endfacet
  facet normal 0 0 -1
    outer loop
      vertex 69.28362829238176 27.018666706979275 0
      vertex 65 24.019237883388996 0
      vertex 57.68990308791399 27.829397782683372 0
    endloop
  endfacet
  facet normal 0 0 -1
    outer loop
      vertex 57.5 30 0
      vertex 69.28362829238176 27.018666706979275 0
      vertex 57.68990308791399 27.829397782683372 0
    endloop
  endfacet
  facet normal 0 0 1
    outer loop
      vertex 0 0 0.1
      vertex 28.867519207298756 28.867519207298756 0.1
      vertex 27.018666706979275 30.716371707618237 0.1
    endloop
  endfacet
  facet normal 0 0 1
    outer loop
      vertex 69.28362829238176 72.98133329302073 0.1
      vertex 71.13248079270124 71.13248079270124 0.1
      vertex 100 100 0.1
    endloop
  endfacet
  facet normal 0 0 1
    outer loop
      vertex 0 0 0.1
      vertex 27.018666706979275 30.716371707618237 0.1
      vertex 24.019237883388996 35 0.1
    endloop
  endfacet
  facet normal 0 0 1
    outer loop
      vertex 65 75.980762116611 0.1
      vertex 69.28362829238176 72.98133329302073 0.1
      vertex 100 100 0.1
    endloop
  endfacet
  facet normal 0 0 1
    outer loop
      vertex 0 0 0.1
      vertex 24.019237883388996 35 0.1
      vertex 21.809221379458904 39.73939570039511 0.1
    endloop
  endfacet
  facet normal 0 0 1
    outer loop
      vertex 60.26060429960489 78.1907786205411 0.1
      vertex 65 75.980762116611 0.1
      vertex 100 100 0.1
    endloop
  endfacet
  facet normal 0 0 1
    outer loop
      vertex 0 0 0.1
      vertex 21.809221379458904 39.73939570039511 0.1
      vertex 20.455767408013344 44.79055467247963 0.1
    endloop
  endfacet
  facet normal 0 0 1
    outer loop
      vertex 0 100 0.1
      vertex 0 0 0.1
      vertex 20.455767408013344 44.79055467247963 0.1
    endloop
  endfacet
  facet normal 0 0 1
    outer loop
      vertex 0 100 0.1
      vertex 20.455767408013344 44.79055467247963 0.1
      vertex 20 50 0.1
    endloop
  endfacet
  facet normal 0 0 1
    outer loop
      vertex 0 100 0.1
      vertex 20 50 0.1
      vertex 20.455767408013344 55.20944532752037 0.1
    endloop
  endfacet
  facet normal 0 0 1
    outer loop
      vertex 0 100 0.1
      vertex 20.455767408013344 55.20944532752037 0.1
      vertex 21.809221379458904 60.26060429960489 0.1
    endloop
  endfacet
  facet normal 0 0 1
    outer loop
      vertex 0 100 0.1
      vertex 21.809221379458904 60.26060429960489 0.1
      vertex 24.019237883388996 65 0.1
    endloop
  endfacet
  facet normal 0 0 1
    outer loop
      vertex 0 100 0.1
      vertex 24.019237883388996 65 0.1
      vertex 27.018666706979275 69.28362829238176 0.1
    endloop
  endfacet
  facet normal 0 0 1
    outer loop
      vertex 0 100 0.1
      vertex 27.018666706979275 69.28362829238176 0.1
      vertex 30.716371707618237 72.98133329302073 0.1
    endloop
  endfacet
  facet normal 0 0 1
    outer loop
      vertex 0 100 0.1
      vertex 30.716371707618237 72.98133329302073 0.1
      vertex 35 75.980762116611 0.1
    endloop
  endfacet
  facet normal 0 0 1
    outer loop
      vertex 0 100 0.1
      vertex 35 75.980762116611 0.1
      vertex 39.73939570039511 78.1907786205411 0.1
    endloop
  endfacet
  facet normal 0 0 1
    outer loop
      vertex 55.20944532752037 79.54423259198666 0.1
      vertex 60.26060429960489 78.1907786205411 0.1
      vertex 100 100 0.1
    endloop
  endfacet
  facet normal 0 0 1
    outer loop
      vertex 55.20944532752037 79.54423259198666 0.1
      vertex 100 100 0.1
      vertex 0 100 0.1
    endloop
  endfacet
  facet normal 0 0 1
    outer loop
      vertex 50 80 0.1
      vertex 55.20944532752037 79.54423259198666 0.1
      vertex 0 100 0.1
    endloop
  endfacet
  facet normal 0 0 1
    outer loop
      vertex 44.79055467247963 79.54423259198666 0.1
      vertex 50 80 0.1
      vertex 0 100 0.1
    endloop
  endfacet
  facet normal 0 0 1
    outer loop
      vertex 44.79055467247963 79.54423259198666 0.1
      vertex 0 100 0.1
      vertex 39.73939570039511 78.1907786205411 0.1
    endloop
  endfacet
  facet normal 0 0 1
    outer loop
      vertex 90 73 0.1
      vertex 77.8949693441391 60.8949693441391 0.1
      vertex 78.1907786205411 60.26060429960489 0.1
    endloop
  endfacet
  facet normal 0 0 1
    outer loop
      vertex 39.73939570039511 21.809221379458904 0.1
      vertex 39.1050306558609 22.1050306558609 0.1
      vertex 27 10 0.1
    endloop
  endfacet
  facet normal 0 0 1
    outer loop
      vertex 78.1907786205411 39.73939570039511 0.1
      vertex 78.08908583968878 39.521314822137356 0.1
      vertex 79.57555554062128 38.03484512120485 0.1
    endloop
  endfacet
  facet normal 0 0 1
    outer loop
      vertex 61.96515487879515 20.42444445937872 0.1
      vertex 60.478685177862644 21.910914160311222 0.1
      vertex 60.26060429960489 21.809221379458904 0.1
    endloop
  endfacet
  facet normal 0 0 1
    outer loop
      vertex 90 73 0.1
      vertex 78.1907786205411 60.26060429960489 0.1
      vertex 79.54423259198666 55.20944532752037 0.1
    endloop
  endfacet
  facet normal 0 0 1
    outer loop
      vertex 44.79055467247963 20.455767408013344 0.1
      vertex 39.73939570039511 21.809221379458904 0.1
      vertex 27 10 0.1
    endloop
  endfacet
  facet normal 0 0 1
    outer loop
      vertex 79.54423259198666 44.79055467247963 0.1
      vertex 78.1907786205411 39.73939570039511 0.1
      vertex 79.57555554062128 38.03484512120485 0.1
    endloop
  endfacet
  facet normal 0 0 1
    outer loop
      vertex 61.96515487879515 20.42444445937872 0.1
      vertex 60.26060429960489 21.809221379458904 0.1
      vertex 55.20944532752037 20.455767408013344 0.1
    endloop
  endfacet
  facet normal 0 0 1
    outer loop
      vertex 90 73 0.1
      vertex 79.54423259198666 55.20944532752037 0.1
      vertex 80 50 0.1
    endloop
  endfacet
  facet normal 0 0 1
    outer loop
      vertex 50 20 0.1
      vertex 44.79055467247963 20.455767408013344 0.1
      vertex 27 10 0.1
    endloop
  endfacet
  facet normal 0 0 1
    outer loop
      vertex 79.54423259198666 44.79055467247963 0.1
      vertex 79.57555554062128 38.03484512120485 0.1
      vertex 80.82531754672527 36.25 0.1
    endloop
  endfacet
  facet normal 0 0 1
    outer loop
      vertex 63.75 19.174682453274727 0.1
      vertex 61.96515487879515 20.42444445937872 0.1
      vertex 55.20944532752037 20.455767408013344 0.1
    endloop
  endfacet
  facet normal 0 0 1
    outer loop
      vertex 90 73 0.1
      vertex 80 50 0.1
      vertex 79.54423259198666 44.79055467247963 0.1
    endloop
  endfacet
  facet normal 0 0 1
    outer loop
      vertex 90 73 0.1
      vertex 79.54423259198666 44.79055467247963 0.1
      vertex 80.82531754672527 36.25 0.1
    endloop
  endfacet
  facet normal 0 0 1
    outer loop
      vertex 90 73 0.1
      vertex 80.82531754672527 36.25 0.1
      vertex 81.74615775793791 34.27525179088116 0.1
    endloop
  endfacet
  facet normal 0 0 1
    outer loop
      vertex 90 10 0.1
      vertex 90 73 0.1
      vertex 81.74615775793791 34.27525179088116 0.1
    endloop
  endfacet
  facet normal 0 0 1
    outer loop
      vertex 90 10 0.1
      vertex 81.74615775793791 34.27525179088116 0.1
      vertex 82.31009691208601 32.17060221731663 0.1
    endloop
  endfacet
  facet normal 0 0 1
    outer loop
      vertex 90 10 0.1
      vertex 82.31009691208601 32.17060221731663 0.1
      vertex 82.5 30 0.1
    endloop
  endfacet
  facet normal 0 0 1
    outer loop
      vertex 90 10 0.1
      vertex 82.5 30 0.1
      vertex 82.31009691208601 27.829397782683372 0.1
    endloop
  endfacet
  facet normal 0 0 1
    outer loop
      vertex 90 10 0.1
      vertex 82.31009691208601 27.829397782683372 0.1
      vertex 81.74615775793791 25.724748209118843 0.1
    endloop
  endfacet
  facet normal 0 0 1
    outer loop
      vertex 90 10 0.1
      vertex 81.74615775793791 25.724748209118843 0.1
      vertex 80.82531754672527 23.75 0.1
    endloop
  endfacet
  facet normal 0 0 1
    outer loop
      vertex 90 10 0.1
      vertex 80.82531754672527 23.75 0.1
      vertex 79.57555554062128 21.965154878795147 0.1
    endloop
  endfacet
  facet normal 0 0 1
    outer loop
      vertex 90 10 0.1
      vertex 79.57555554062128 21.965154878795147 0.1
      vertex 78.03484512120485 20.42444445937872 0.1
    endloop
  endfacet
  facet normal 0 0 1
    outer loop
      vertex 90 10 0.1
      vertex 78.03484512120485 20.42444445937872 0.1
      vertex 76.25 19.174682453274727 0.1
    endloop
  endfacet
  facet normal 0 0 1
    outer loop
      vertex 90 10 0.1
      vertex 76.25 19.174682453274727 0.1
      vertex 74.27525179088116 18.253842242062092 0.1
    endloop
  endfacet
  facet normal 0 0 1
    outer loop
      vertex 90 10 0.1
      vertex 74.27525179088116 18.253842242062092 0.1
      vertex 72.17060221731663 17.68990308791399 0.1
    endloop
  endfacet
  facet normal 0 0 1
    outer loop
      vertex 90 10 0.1
      vertex 72.17060221731663 17.68990308791399 0.1
      vertex 70 17.5 0.1
    endloop
  endfacet
  facet normal 0 0 1
    outer loop
      vertex 27 10 0.1
      vertex 90 10 0.1
      vertex 70 17.5 0.1
    endloop
  endfacet
  facet normal 0 0 1
    outer loop
      vertex 27 10 0.1
      vertex 70 17.5 0.1
      vertex 67.82939778268337 17.68990308791399 0.1
    endloop
  endfacet
  facet normal 0 0 1
    outer loop
      vertex 50 20 0.1
      vertex 27 10 0.1
      vertex 67.82939778268337 17.68990308791399 0.1
    endloop
  endfacet
  facet normal 0 0 1
    outer loop
      vertex 50 20 0.1
      vertex 67.82939778268337 17.68990308791399 0.1
      vertex 65.72474820911884 18.253842242062092 0.1
    endloop
  endfacet
  facet normal 0 0 1
    outer loop
      vertex 55.20944532752037 20.455767408013344 0.1
      vertex 50 20 0.1
      vertex 65.72474820911884 18.253842242062092 0.1
    endloop
  endfacet
  facet normal 0 0 1
    outer loop
      vertex 63.75 19.174682453274727 0.1
      vertex 55.20944532752037 20.455767408013344 0.1
      vertex 65.72474820911884 18.253842242062092 0.1
    endloop
  endfacet
  facet normal 0 0 1
    outer loop
      vertex 72.98133329302073 69.28362829238176 0.1
      vertex 71.13248079270124 71.13248079270124 0.1
      vertex 65 65 0.1
    endloop
  endfacet
  facet normal 0 0 1
    outer loop
      vertex 65 65 0.1
      vertex 35 65 0.1
      vertex 35 35 0.1
    endloop
  endfacet
  facet normal 0 0 1
    outer loop
      vertex 35 35 0.1
      vertex 28.867519207298756 28.867519207298756 0.1
      vertex 30.716371707618237 27.018666706979275 0.1
    endloop
  endfacet
  facet normal 0 0 1
    outer loop
      vertex 75.980762116611 65 0.1
      vertex 72.98133329302073 69.28362829238176 0.1
      vertex 65 65 0.1
    endloop
  endfacet
  facet normal 0 0 1
    outer loop
      vertex 35 35 0.1
      vertex 30.716371707618237 27.018666706979275 0.1
      vertex 35 24.019237883388996 0.1
    endloop
  endfacet
  facet normal 0 0 1
    outer loop
      vertex 39.1050306558609 22.1050306558609 0.1
      vertex 77.8949693441391 60.8949693441391 0.1
      vertex 75.980762116611 65 0.1
    endloop
  endfacet
  facet normal 0 0 1
    outer loop
      vertex 35 24.019237883388996 0.1
      vertex 39.1050306558609 22.1050306558609 0.1
      vertex 75.980762116611 65 0.1
    endloop
  endfacet
  facet normal 0 0 1
    outer loop
      vertex 35 35 0.1
      vertex 35 24.019237883388996 0.1
      vertex 75.980762116611 65 0.1
    endloop
  endfacet
  facet normal 0 0 1
    outer loop
      vertex 65 65 0.1
      vertex 35 35 0.1
      vertex 75.980762116611 65 0.1
    endloop
  endfacet
  facet normal 0 0 1
    outer loop
      vertex 75.980762116611 35 0.1
      vertex 78.08908583968878 39.521314822137356 0.1
      vertex 78.03484512120485 39.57555554062128 0.1
    endloop
  endfacet
  facet normal 0 0 1
    outer loop
      vertex 75.980762116611 35 0.1
      vertex 78.03484512120485 39.57555554062128 0.1
      vertex 76.25 40.82531754672527 0.1
    endloop
  endfacet
  facet normal 0 0 1
    outer loop
      vertex 60.42444445937872 21.965154878795147 0.1
      vertex 60.478685177862644 21.910914160311222 0.1
      vertex 65 24.019237883388996 0.1
    endloop
  endfacet
  facet normal 0 0 1
    outer loop
      vertex 59.17468245327473 23.75 0.1
      vertex 60.42444445937872 21.965154878795147 0.1
      vertex 65 24.019237883388996 0.1
    endloop
  endfacet
  facet normal 0 0 1
    outer loop
      vertex 75.980762116611 35 0.1
      vertex 76.25 40.82531754672527 0.1
      vertex 74.27525179088116 41.74615775793791 0.1
    endloop
  endfacet
  facet normal 0 0 1
    outer loop
      vertex 58.25384224206209 25.724748209118843 0.1
      vertex 59.17468245327473 23.75 0.1
      vertex 65 24.019237883388996 0.1
    endloop
  endfacet
  facet normal 0 0 1
    outer loop
      vertex 75.980762116611 35 0.1
      vertex 74.27525179088116 41.74615775793791 0.1
      vertex 72.17060221731663 42.31009691208601 0.1
    endloop
  endfacet
  facet normal 0 0 1
    outer loop
      vertex 72.98133329302073 30.716371707618237 0.1
      vertex 75.980762116611 35 0.1
      vertex 72.17060221731663 42.31009691208601 0.1
    endloop
  endfacet
  facet normal 0 0 1
    outer loop
      vertex 72.98133329302073 30.716371707618237 0.1
      vertex 72.17060221731663 42.31009691208601 0.1
      vertex 70 42.5 0.1
    endloop
  endfacet
  facet normal 0 0 1
    outer loop
      vertex 72.98133329302073 30.716371707618237 0.1
      vertex 70 42.5 0.1
      vertex 67.82939778268337 42.31009691208601 0.1
    endloop
  endfacet
  facet normal 0 0 1
    outer loop
      vertex 72.98133329302073 30.716371707618237 0.1
      vertex 67.82939778268337 42.31009691208601 0.1
      vertex 65.72474820911884 41.74615775793791 0.1
    endloop
  endfacet
  facet normal 0 0 1
    outer loop
      vertex 72.98133329302073 30.716371707618237 0.1
      vertex 65.72474820911884 41.74615775793791 0.1
      vertex 63.75 40.82531754672527 0.1
    endloop
  endfacet
  facet normal 0 0 1
    outer loop
      vertex 69.28362829238176 27.018666706979275 0.1
      vertex 72.98133329302073 30.716371707618237 0.1
      vertex 63.75 40.82531754672527 0.1
    endloop
  endfacet
  facet normal 0 0 1
    outer loop
      vertex 69.28362829238176 27.018666706979275 0.1
      vertex 63.75 40.82531754672527 0.1
      vertex 61.96515487879515 39.57555554062128 0.1
    endloop
  endfacet
  facet normal 0 0 1
    outer loop
      vertex 69.28362829238176 27.018666706979275 0.1
      vertex 61.96515487879515 39.57555554062128 0.1
      vertex 60.42444445937872 38.03484512120485 0.1
    endloop
  endfacet
  facet normal 0 0 1
    outer loop
      vertex 69.28362829238176 27.018666706979275 0.1
      vertex 60.42444445937872 38.03484512120485 0.1
      vertex 59.17468245327473 36.25 0.1
    endloop
  endfacet
  facet normal 0 0 1
    outer loop
      vertex 69.28362829238176 27.018666706979275 0.1
      vertex 59.17468245327473 36.25 0.1
      vertex 58.25384224206209 34.27525179088116 0.1
    endloop
  endfacet
  facet normal 0 0 1
    outer loop
      vertex 69.28362829238176 27.018666706979275 0.1
      vertex 58.25384224206209 34.27525179088116 0.1
      vertex 57.68990308791399 32.17060221731663 0.1
    endloop
  endfacet
  facet normal 0 0 1
    outer loop
      vertex 69.28362829238176 27.018666706979275 0.1
      vertex 57.68990308791399 32.17060221731663 0.1
      vertex 57.5 30 0.1
    endloop
  endfacet
  facet normal 0 0 1
    outer loop
      vertex 57.68990308791399 27.829397782683372 0.1
      vertex 58.25384224206209 25.724748209118843 0.1
      vertex 65 24.019237883388996 0.1
    endloop
  endfacet
  facet normal 0 0 1
    outer loop
      vertex 57.68990308791399 27.829397782683372 0.1
      vertex 65 24.019237883388996 0.1
      vertex 69.28362829238176 27.018666706979275 0.1
    endloop
  endfacet
  facet normal 0 0 1
    outer loop
      vertex 57.68990308791399 27.829397782683372 0.1
      vertex 69.28362829238176 27.018666706979275 0.1
      vertex 57.5 30 0.1
    endloop
  endfacet
endsolid OpenSCAD_Model
