solid OpenSCAD_Model
  facet normal 0 -0.5000000000000001 0.8660254037844386
    outer loop
      vertex 0 1.8301270189221928 6.830127018922193
      vertex 5 -2.5 4.330127018922193
      vertex 5 1.8301270189221928 6.830127018922193
    endloop
  endfacet
  facet normal 0 -0.5000000000000001 0.8660254037844386
    outer loop
      vertex 5 -2.5 4.330127018922193
      vertex 0 1.8301270189221928 6.830127018922193
      vertex 0 -2.5 4.330127018922193
    endloop
  endfacet
  facet normal 0 0.5000000000000001 -0.8660254037844386
    outer loop
      vertex 0 0 0
      vertex 5 4.330127018922193 2.5
      vertex 5 0 0
    endloop
  endfacet
  facet normal 0 0.5000000000000001 -0.8660254037844386
    outer loop
      vertex 5 4.330127018922193 2.5
      vertex 0 0 0
      vertex 0 4.330127018922193 2.5
    endloop
  endfacet
  facet normal 0 -0.8660254037844386 -0.5000000000000001
    outer loop
      vertex 0 0 0
      vertex 5 -2.5 4.330127018922193
      vertex 0 -2.5 4.330127018922193
    endloop
  endfacet
  facet normal 0 -0.8660254037844386 -0.5000000000000001
    outer loop
      vertex 5 -2.5 4.330127018922193
      vertex 0 0 0
      vertex 5 0 0
    endloop
  endfacet
  facet normal 1 0 0
    outer loop
      vertex 5 1.8301270189221928 6.830127018922193
      vertex 5 0 0
      vertex 5 4.330127018922193 2.5
    endloop
  endfacet
  facet normal 1 0 0
    outer loop
      vertex 5 0 0
      vertex 5 1.8301270189221928 6.830127018922193
      vertex 5 -2.5 4.330127018922193
    endloop
  endfacet
  facet normal 0 0.8660254037844386 0.5000000000000001
    outer loop
      vertex 5 4.330127018922193 2.5
      vertex 0 1.8301270189221928 6.830127018922193
      vertex 5 1.8301270189221928 6.830127018922193
    endloop
  endfacet
  facet normal 0 0.8660254037844386 0.5000000000000001
    outer loop
      vertex 0 1.8301270189221928 6.830127018922193
      vertex 5 4.330127018922193 2.5
      vertex 0 4.330127018922193 2.5
    endloop
  endfacet
  facet normal -1 0 0
    outer loop
      vertex 0 0 0
      vertex 0 1.8301270189221928 6.830127018922193
      vertex 0 4.330127018922193 2.5
    endloop
  endfacet
  facet normal -1 0 0
    outer loop
      vertex 0 1.8301270189221928 6.830127018922193
      vertex 0 0 0
      vertex 0 -2.5 4.330127018922193
    endloop
  endfacet
endsolid OpenSCAD_Model
