solid JSCAD
facet normal 0 -0.8660253882408142 -0.4999999701976776
outer loop
vertex 0 -2.5 4.330127239227295
vertex 0 0 0
vertex 5 0 0
endloop
endfacet
facet normal 0 0.4999999701976776 -0.8660253882408142
outer loop
vertex 0 4.330127239227295 2.5
vertex 5 0 0
vertex 0 0 0
endloop
endfacet
facet normal -1 0 0
outer loop
vertex 0 -2.5 4.330127239227295
vertex 0 1.8301270008087158 6.830127239227295
vertex 0 0 0
endloop
endfacet
facet normal 0 -0.5 0.8660253882408142
outer loop
vertex 0 1.8301270008087158 6.830127239227295
vertex 0 -2.5 4.330127239227295
vertex 5 -2.5 4.330127239227295
endloop
endfacet
facet normal -1 0 0
outer loop
vertex 0 1.8301270008087158 6.830127239227295
vertex 0 4.330127239227295 2.5
vertex 0 0 0
endloop
endfacet
facet normal 0 0.8660253882408142 0.5
outer loop
vertex 0 1.8301270008087158 6.830127239227295
vertex 5 1.8301270008087158 6.830127239227295
vertex 0 4.330127239227295 2.5
endloop
endfacet
facet normal 1 0 0
outer loop
vertex 5 -2.5 4.330127239227295
vertex 5 0 0
vertex 5 4.330127239227295 2.5
endloop
endfacet
facet normal 0 -0.8660253882408142 -0.4999999701976776
outer loop
vertex 5 -2.5 4.330127239227295
vertex 0 -2.5 4.330127239227295
vertex 5 0 0
endloop
endfacet
facet normal 0 0.4999999701976776 -0.8660253882408142
outer loop
vertex 5 4.330127239227295 2.5
vertex 5 0 0
vertex 0 4.330127239227295 2.5
endloop
endfacet
facet normal 0 0.8660253882408142 0.5
outer loop
vertex 5 1.8301270008087158 6.830127239227295
vertex 5 4.330127239227295 2.5
vertex 0 4.330127239227295 2.5
endloop
endfacet
facet normal 0 -0.5 0.8660253882408142
outer loop
vertex 5 1.8301270008087158 6.830127239227295
vertex 0 1.8301270008087158 6.830127239227295
vertex 5 -2.5 4.330127239227295
endloop
endfacet
facet normal 1 0 0
outer loop
vertex 5 1.8301270008087158 6.830127239227295
vertex 5 -2.5 4.330127239227295
vertex 5 4.330127239227295 2.5
endloop
endfacet
endsolid JSCAD
