solid JSCAD
facet normal 0 0 -1
outer loop
vertex 0 5 0
vertex 5 0 0
vertex 0 0 0
endloop
endfacet
facet normal 0 0 -1
outer loop
vertex 5 5 0
vertex 5 0 0
vertex 0 5 0
endloop
endfacet
facet normal -1 0 0
outer loop
vertex 0 5 5
vertex 0 5 0
vertex 0 0 0
endloop
endfacet
facet normal 0 -1 0
outer loop
vertex 0 0 5
vertex 0 0 0
vertex 5 0 0
endloop
endfacet
facet normal 0 1 0
outer loop
vertex 5 5 5
vertex 5 5 0
vertex 0 5 0
endloop
endfacet
facet normal 1 0 0
outer loop
vertex 5 0 5
vertex 5 0 0
vertex 5 5 0
endloop
endfacet
facet normal -1 0 0
outer loop
vertex 0 0 5
vertex 0 5 5
vertex 0 0 0
endloop
endfacet
facet normal 0 1 0
outer loop
vertex 0 5 5
vertex 5 5 5
vertex 0 5 0
endloop
endfacet
facet normal 0 -1 0
outer loop
vertex 5 0 5
vertex 0 0 5
vertex 5 0 0
endloop
endfacet
facet normal 0 0 1
outer loop
vertex 0 5 5
vertex 0 0 5
vertex 5 0 5
endloop
endfacet
facet normal 0 0 1
outer loop
vertex 5 5 5
vertex 0 5 5
vertex 5 0 5
endloop
endfacet
facet normal 1 0 0
outer loop
vertex 5 5 5
vertex 5 0 5
vertex 5 5 0
endloop
endfacet
facet normal 0 0 -1
outer loop
vertex 15 5 0
vertex 20 0 0
vertex 15 0 0
endloop
endfacet
facet normal 0 0 -1
outer loop
vertex 20 5 0
vertex 20 0 0
vertex 15 5 0
endloop
endfacet
facet normal -1 0 0
outer loop
vertex 15 5 5
vertex 15 5 0
vertex 15 0 0
endloop
endfacet
facet normal 0 -1 0
outer loop
vertex 15 0 5
vertex 15 0 0
vertex 20 0 0
endloop
endfacet
facet normal 1 0 0
outer loop
vertex 20 0 5
vertex 20 0 0
vertex 20 5 0
endloop
endfacet
facet normal 0 1 0
outer loop
vertex 20 5 5
vertex 20 5 0
vertex 15 5 0
endloop
endfacet
facet normal -1 0 0
outer loop
vertex 15 0 5
vertex 15 5 5
vertex 15 0 0
endloop
endfacet
facet normal 0 1 0
outer loop
vertex 15 5 5
vertex 20 5 5
vertex 15 5 0
endloop
endfacet
facet normal 0 -1 0
outer loop
vertex 20 0 5
vertex 15 0 5
vertex 20 0 0
endloop
endfacet
facet normal 1 0 0
outer loop
vertex 20 5 5
vertex 20 0 5
vertex 20 5 0
endloop
endfacet
facet normal 0 0 1
outer loop
vertex 15 5 5
vertex 15 0 5
vertex 20 0 5
endloop
endfacet
facet normal 0 0 1
outer loop
vertex 20 5 5
vertex 15 5 5
vertex 20 0 5
endloop
endfacet
facet normal 0 0 -1
outer loop
vertex 10.669873237609863 28.480762481689453 0
vertex 17.5 30.310888290405273 0
vertex 15 25.980762481689453 0
endloop
endfacet
facet normal 0 0 -1
outer loop
vertex 13.169873237609863 32.810890197753906 0
vertex 17.5 30.310888290405273 0
vertex 10.669873237609863 28.480762481689453 0
endloop
endfacet
facet normal -0.5 -0.8660253882408142 0
outer loop
vertex 10.669873237609863 28.480762481689453 5
vertex 10.669873237609863 28.480762481689453 0
vertex 15 25.980762481689453 0
endloop
endfacet
facet normal -0.866025447845459 0.4999999403953552 0
outer loop
vertex 13.169873237609863 32.810890197753906 5
vertex 13.169873237609863 32.810890197753906 0
vertex 10.669873237609863 28.480762481689453 0
endloop
endfacet
facet normal 0.8660253286361694 -0.5000001192092896 0
outer loop
vertex 15 25.980762481689453 5
vertex 15 25.980762481689453 0
vertex 17.5 30.310888290405273 0
endloop
endfacet
facet normal 0.5000002980232239 0.8660252094268799 0
outer loop
vertex 17.5 30.310888290405273 5
vertex 17.5 30.310888290405273 0
vertex 13.169873237609863 32.810890197753906 0
endloop
endfacet
facet normal -0.866025447845459 0.4999999403953552 0
outer loop
vertex 10.669873237609863 28.480762481689453 5
vertex 13.169873237609863 32.810890197753906 5
vertex 10.669873237609863 28.480762481689453 0
endloop
endfacet
facet normal -0.5 -0.8660253882408142 0
outer loop
vertex 15 25.980762481689453 5
vertex 10.669873237609863 28.480762481689453 5
vertex 15 25.980762481689453 0
endloop
endfacet
facet normal 0.5000002980232239 0.8660252094268799 0
outer loop
vertex 13.169873237609863 32.810890197753906 5
vertex 17.5 30.310888290405273 5
vertex 13.169873237609863 32.810890197753906 0
endloop
endfacet
facet normal 0 0 1
outer loop
vertex 10.669873237609863 28.480762481689453 5
vertex 15 25.980762481689453 5
vertex 17.5 30.310888290405273 5
endloop
endfacet
facet normal 0 0 1
outer loop
vertex 13.169873237609863 32.810890197753906 5
vertex 10.669873237609863 28.480762481689453 5
vertex 17.5 30.310888290405273 5
endloop
endfacet
facet normal 0.8660253286361694 -0.5000001192092896 0
outer loop
vertex 17.5 30.310888290405273 5
vertex 15 25.980762481689453 5
vertex 17.5 30.310888290405273 0
endloop
endfacet
endsolid JSCAD
