solid JSCAD
facet normal 0.7071067690849304 0.7071067690849304 0
outer loop
vertex -5 -8.66025447845459 5
vertex -5 -8.66025447845459 0
vertex -8.66025447845459 -5 0
endloop
endfacet
facet normal 0.7071067690849304 0.7071067690849304 0
outer loop
vertex -8.66025447845459 -5 5
vertex -5 -8.66025447845459 5
vertex -8.66025447845459 -5 0
endloop
endfacet
facet normal 0.7071067690849304 0.7071067690849304 0
outer loop
vertex -5 -8.66025447845459 10
vertex -5 -8.66025447845459 5
vertex -8.66025447845459 -5 5
endloop
endfacet
facet normal 0.7071067690849304 0.7071067690849304 0
outer loop
vertex -8.66025447845459 -5 10
vertex -5 -8.66025447845459 10
vertex -8.66025447845459 -5 5
endloop
endfacet
facet normal 0.9659258723258972 0.25881895422935486 0
outer loop
vertex -8.66025447845459 -5 5
vertex -8.66025447845459 -5 0
vertex -10 1.2246467996456087e-15 0
endloop
endfacet
facet normal 0.9659258723258972 0.25881895422935486 0
outer loop
vertex -10 1.2246467996456087e-15 5
vertex -8.66025447845459 -5 5
vertex -10 1.2246467996456087e-15 0
endloop
endfacet
facet normal 0.9659258723258972 0.25881895422935486 0
outer loop
vertex -8.66025447845459 -5 10
vertex -8.66025447845459 -5 5
vertex -10 1.2246467996456087e-15 5
endloop
endfacet
facet normal 0.9659258723258972 0.25881895422935486 0
outer loop
vertex -10 1.2246467996456087e-15 10
vertex -8.66025447845459 -5 10
vertex -10 1.2246467996456087e-15 5
endloop
endfacet
facet normal 0.25881895422935486 0.9659258723258972 0
outer loop
vertex -5 -8.66025447845459 5
vertex -1.8369700935892946e-15 -10 5
vertex -5 -8.66025447845459 0
endloop
endfacet
facet normal 0.25881895422935486 0.9659258723258972 0
outer loop
vertex -1.8369700935892946e-15 -10 5
vertex -1.8369700935892946e-15 -10 0
vertex -5 -8.66025447845459 0
endloop
endfacet
facet normal 0.25881895422935486 0.9659258723258972 0
outer loop
vertex -5 -8.66025447845459 10
vertex -1.8369700935892946e-15 -10 10
vertex -5 -8.66025447845459 5
endloop
endfacet
facet normal 0.25881895422935486 0.9659258723258972 0
outer loop
vertex -1.8369700935892946e-15 -10 10
vertex -1.8369700935892946e-15 -10 5
vertex -5 -8.66025447845459 5
endloop
endfacet
facet normal 0 0 1
outer loop
vertex 10 0 0
vertex -10 1.2246467996456087e-15 0
vertex -8.66025447845459 -5 0
endloop
endfacet
facet normal 0 0 1
outer loop
vertex 10 0 0
vertex -8.66025447845459 -5 0
vertex -5 -8.66025447845459 0
endloop
endfacet
facet normal 0.7071067690849304 0.7071067690849304 0
outer loop
vertex -5 -8.66025447845459 15
vertex -5 -8.66025447845459 10
vertex -8.66025447845459 -5 10
endloop
endfacet
facet normal 0.7071067690849304 0.7071067690849304 0
outer loop
vertex -8.66025447845459 -5 15
vertex -5 -8.66025447845459 15
vertex -8.66025447845459 -5 10
endloop
endfacet
facet normal 0.7071067690849304 0.7071067690849304 0
outer loop
vertex -5 -8.66025447845459 20
vertex -5 -8.66025447845459 15
vertex -8.66025447845459 -5 15
endloop
endfacet
facet normal 0.7071067690849304 0.7071067690849304 0
outer loop
vertex -8.66025447845459 -5 20
vertex -5 -8.66025447845459 20
vertex -8.66025447845459 -5 15
endloop
endfacet
facet normal 0.9659258723258972 0.25881895422935486 0
outer loop
vertex -8.66025447845459 -5 15
vertex -8.66025447845459 -5 10
vertex -10 1.2246467996456087e-15 10
endloop
endfacet
facet normal 0.9659258723258972 0.25881895422935486 0
outer loop
vertex -10 1.2246467996456087e-15 15
vertex -8.66025447845459 -5 15
vertex -10 1.2246467996456087e-15 10
endloop
endfacet
facet normal 0.9659258723258972 0.25881895422935486 0
outer loop
vertex -8.66025447845459 -5 20
vertex -8.66025447845459 -5 15
vertex -10 1.2246467996456087e-15 15
endloop
endfacet
facet normal 0.9659258723258972 0.25881895422935486 0
outer loop
vertex -10 1.2246467996456087e-15 20
vertex -8.66025447845459 -5 20
vertex -10 1.2246467996456087e-15 15
endloop
endfacet
facet normal 0.25881895422935486 0.9659258723258972 0
outer loop
vertex -5 -8.66025447845459 15
vertex -1.8369700935892946e-15 -10 15
vertex -5 -8.66025447845459 10
endloop
endfacet
facet normal 0.25881895422935486 0.9659258723258972 0
outer loop
vertex -1.8369700935892946e-15 -10 15
vertex -1.8369700935892946e-15 -10 10
vertex -5 -8.66025447845459 10
endloop
endfacet
facet normal 0.25881895422935486 0.9659258723258972 0
outer loop
vertex -5 -8.66025447845459 20
vertex -1.8369700935892946e-15 -10 20
vertex -5 -8.66025447845459 15
endloop
endfacet
facet normal 0.25881895422935486 0.9659258723258972 0
outer loop
vertex -1.8369700935892946e-15 -10 20
vertex -1.8369700935892946e-15 -10 15
vertex -5 -8.66025447845459 15
endloop
endfacet
facet normal 0 0 -1
outer loop
vertex 8.66025447845459 -5 20
vertex -5 -8.66025447845459 20
vertex -8.66025447845459 -5 20
endloop
endfacet
facet normal 0 0 -1
outer loop
vertex 8.66025447845459 -5 20
vertex -8.66025447845459 -5 20
vertex -10 1.2246467996456087e-15 20
endloop
endfacet
facet normal 0.9659258723258972 -0.25881895422935486 0
outer loop
vertex -10 1.2246467996456087e-15 5
vertex -10 1.2246467996456087e-15 0
vertex -8.66025447845459 5 0
endloop
endfacet
facet normal 0.9659258723258972 -0.25881895422935486 0
outer loop
vertex -8.66025447845459 5 5
vertex -10 1.2246467996456087e-15 5
vertex -8.66025447845459 5 0
endloop
endfacet
facet normal 0.9659258723258972 -0.25881895422935486 0
outer loop
vertex -10 1.2246467996456087e-15 10
vertex -10 1.2246467996456087e-15 5
vertex -8.66025447845459 5 5
endloop
endfacet
facet normal 0.9659258723258972 -0.25881895422935486 0
outer loop
vertex -8.66025447845459 5 10
vertex -10 1.2246467996456087e-15 10
vertex -8.66025447845459 5 5
endloop
endfacet
facet normal 0.7071067690849304 -0.7071067690849304 0
outer loop
vertex -8.66025447845459 5 5
vertex -8.66025447845459 5 0
vertex -5 8.66025447845459 0
endloop
endfacet
facet normal 0.7071067690849304 -0.7071067690849304 0
outer loop
vertex -5 8.66025447845459 5
vertex -8.66025447845459 5 5
vertex -5 8.66025447845459 0
endloop
endfacet
facet normal 0.7071067690849304 -0.7071067690849304 0
outer loop
vertex -8.66025447845459 5 10
vertex -8.66025447845459 5 5
vertex -5 8.66025447845459 5
endloop
endfacet
facet normal 0.7071067690849304 -0.7071067690849304 0
outer loop
vertex -5 8.66025447845459 10
vertex -8.66025447845459 5 10
vertex -5 8.66025447845459 5
endloop
endfacet
facet normal 0 0 1
outer loop
vertex 10 0 0
vertex -8.66025447845459 5 0
vertex -10 1.2246467996456087e-15 0
endloop
endfacet
facet normal 0 0 1
outer loop
vertex 10 0 0
vertex -5 8.66025447845459 0
vertex -8.66025447845459 5 0
endloop
endfacet
facet normal 0.25881895422935486 -0.9659258723258972 0
outer loop
vertex -5 8.66025447845459 5
vertex -5 8.66025447845459 0
vertex 6.123233998228043e-16 10 0
endloop
endfacet
facet normal 0.25881895422935486 -0.9659258723258972 0
outer loop
vertex 6.123233998228043e-16 10 5
vertex -5 8.66025447845459 5
vertex 6.123233998228043e-16 10 0
endloop
endfacet
facet normal 0.25881895422935486 -0.9659258723258972 0
outer loop
vertex -5 8.66025447845459 10
vertex -5 8.66025447845459 5
vertex 6.123233998228043e-16 10 5
endloop
endfacet
facet normal 0.25881895422935486 -0.9659258723258972 0
outer loop
vertex 6.123233998228043e-16 10 10
vertex -5 8.66025447845459 10
vertex 6.123233998228043e-16 10 5
endloop
endfacet
facet normal 0.9659258723258972 -0.25881895422935486 0
outer loop
vertex -10 1.2246467996456087e-15 15
vertex -10 1.2246467996456087e-15 10
vertex -8.66025447845459 5 10
endloop
endfacet
facet normal 0.9659258723258972 -0.25881895422935486 0
outer loop
vertex -8.66025447845459 5 15
vertex -10 1.2246467996456087e-15 15
vertex -8.66025447845459 5 10
endloop
endfacet
facet normal 0.9659258723258972 -0.25881895422935486 0
outer loop
vertex -10 1.2246467996456087e-15 20
vertex -10 1.2246467996456087e-15 15
vertex -8.66025447845459 5 15
endloop
endfacet
facet normal 0.9659258723258972 -0.25881895422935486 0
outer loop
vertex -8.66025447845459 5 20
vertex -10 1.2246467996456087e-15 20
vertex -8.66025447845459 5 15
endloop
endfacet
facet normal 0.7071067690849304 -0.7071067690849304 0
outer loop
vertex -8.66025447845459 5 15
vertex -8.66025447845459 5 10
vertex -5 8.66025447845459 10
endloop
endfacet
facet normal 0.7071067690849304 -0.7071067690849304 0
outer loop
vertex -5 8.66025447845459 15
vertex -8.66025447845459 5 15
vertex -5 8.66025447845459 10
endloop
endfacet
facet normal 0.7071067690849304 -0.7071067690849304 0
outer loop
vertex -8.66025447845459 5 20
vertex -8.66025447845459 5 15
vertex -5 8.66025447845459 15
endloop
endfacet
facet normal 0.7071067690849304 -0.7071067690849304 0
outer loop
vertex -5 8.66025447845459 20
vertex -8.66025447845459 5 20
vertex -5 8.66025447845459 15
endloop
endfacet
facet normal 0 0 -1
outer loop
vertex 8.66025447845459 -5 20
vertex -10 1.2246467996456087e-15 20
vertex -8.66025447845459 5 20
endloop
endfacet
facet normal 0 0 -1
outer loop
vertex 8.66025447845459 -5 20
vertex -8.66025447845459 5 20
vertex -5 8.66025447845459 20
endloop
endfacet
facet normal 0.25881895422935486 -0.9659258723258972 0
outer loop
vertex -5 8.66025447845459 15
vertex -5 8.66025447845459 10
vertex 6.123233998228043e-16 10 10
endloop
endfacet
facet normal 0.25881895422935486 -0.9659258723258972 0
outer loop
vertex 6.123233998228043e-16 10 15
vertex -5 8.66025447845459 15
vertex 6.123233998228043e-16 10 10
endloop
endfacet
facet normal 0.25881895422935486 -0.9659258723258972 0
outer loop
vertex -5 8.66025447845459 20
vertex -5 8.66025447845459 15
vertex 6.123233998228043e-16 10 15
endloop
endfacet
facet normal 0.25881895422935486 -0.9659258723258972 0
outer loop
vertex 6.123233998228043e-16 10 20
vertex -5 8.66025447845459 20
vertex 6.123233998228043e-16 10 15
endloop
endfacet
facet normal -0.25881895422935486 0.9659258723258972 0
outer loop
vertex -1.8369700935892946e-15 -10 5
vertex 5 -8.66025447845459 5
vertex -1.8369700935892946e-15 -10 0
endloop
endfacet
facet normal 0 0 1
outer loop
vertex 10 0 0
vertex -5 -8.66025447845459 0
vertex -1.8369700935892946e-15 -10 0
endloop
endfacet
facet normal -0.25881895422935486 0.9659258723258972 0
outer loop
vertex 5 -8.66025447845459 5
vertex 5 -8.66025447845459 0
vertex -1.8369700935892946e-15 -10 0
endloop
endfacet
facet normal -0.25881895422935486 0.9659258723258972 0
outer loop
vertex -1.8369700935892946e-15 -10 10
vertex 5 -8.66025447845459 10
vertex -1.8369700935892946e-15 -10 5
endloop
endfacet
facet normal -0.25881895422935486 0.9659258723258972 0
outer loop
vertex 5 -8.66025447845459 10
vertex 5 -8.66025447845459 5
vertex -1.8369700935892946e-15 -10 5
endloop
endfacet
facet normal 0 0 1
outer loop
vertex 10 0 0
vertex -1.8369700935892946e-15 -10 0
vertex 5 -8.66025447845459 0
endloop
endfacet
facet normal -0.7071067690849304 0.7071067690849304 0
outer loop
vertex 8.66025447845459 -5 5
vertex 8.66025447845459 -5 0
vertex 5 -8.66025447845459 0
endloop
endfacet
facet normal -0.7071067690849304 0.7071067690849304 0
outer loop
vertex 5 -8.66025447845459 5
vertex 8.66025447845459 -5 5
vertex 5 -8.66025447845459 0
endloop
endfacet
facet normal -0.7071067690849304 0.7071067690849304 0
outer loop
vertex 8.66025447845459 -5 10
vertex 8.66025447845459 -5 5
vertex 5 -8.66025447845459 5
endloop
endfacet
facet normal -0.7071067690849304 0.7071067690849304 0
outer loop
vertex 5 -8.66025447845459 10
vertex 8.66025447845459 -5 10
vertex 5 -8.66025447845459 5
endloop
endfacet
facet normal 0 0 1
outer loop
vertex 10 0 0
vertex 5 -8.66025447845459 0
vertex 8.66025447845459 -5 0
endloop
endfacet
facet normal -0.9659258723258972 0.25881895422935486 0
outer loop
vertex 8.66025447845459 -5 5
vertex 10 0 5
vertex 8.66025447845459 -5 0
endloop
endfacet
facet normal -0.9659258723258972 0.25881895422935486 0
outer loop
vertex 10 0 5
vertex 10 0 0
vertex 8.66025447845459 -5 0
endloop
endfacet
facet normal -0.9659258723258972 0.25881895422935486 0
outer loop
vertex 8.66025447845459 -5 10
vertex 10 0 10
vertex 8.66025447845459 -5 5
endloop
endfacet
facet normal -0.9659258723258972 0.25881895422935486 0
outer loop
vertex 10 0 10
vertex 10 0 5
vertex 8.66025447845459 -5 5
endloop
endfacet
facet normal -0.25881895422935486 0.9659258723258972 0
outer loop
vertex -1.8369700935892946e-15 -10 15
vertex 5 -8.66025447845459 15
vertex -1.8369700935892946e-15 -10 10
endloop
endfacet
facet normal -0.25881895422935486 0.9659258723258972 0
outer loop
vertex 5 -8.66025447845459 15
vertex 5 -8.66025447845459 10
vertex -1.8369700935892946e-15 -10 10
endloop
endfacet
facet normal 0 0 -1
outer loop
vertex 8.66025447845459 -5 20
vertex -1.8369700935892946e-15 -10 20
vertex -5 -8.66025447845459 20
endloop
endfacet
facet normal -0.25881895422935486 0.9659258723258972 0
outer loop
vertex -1.8369700935892946e-15 -10 20
vertex 5 -8.66025447845459 20
vertex -1.8369700935892946e-15 -10 15
endloop
endfacet
facet normal -0.25881895422935486 0.9659258723258972 0
outer loop
vertex 5 -8.66025447845459 20
vertex 5 -8.66025447845459 15
vertex -1.8369700935892946e-15 -10 15
endloop
endfacet
facet normal 0 0 -1
outer loop
vertex 8.66025447845459 -5 20
vertex 5 -8.66025447845459 20
vertex -1.8369700935892946e-15 -10 20
endloop
endfacet
facet normal -0.7071067690849304 0.7071067690849304 0
outer loop
vertex 8.66025447845459 -5 15
vertex 8.66025447845459 -5 10
vertex 5 -8.66025447845459 10
endloop
endfacet
facet normal -0.7071067690849304 0.7071067690849304 0
outer loop
vertex 5 -8.66025447845459 15
vertex 8.66025447845459 -5 15
vertex 5 -8.66025447845459 10
endloop
endfacet
facet normal -0.7071067690849304 0.7071067690849304 0
outer loop
vertex 8.66025447845459 -5 20
vertex 8.66025447845459 -5 15
vertex 5 -8.66025447845459 15
endloop
endfacet
facet normal -0.7071067690849304 0.7071067690849304 0
outer loop
vertex 5 -8.66025447845459 20
vertex 8.66025447845459 -5 20
vertex 5 -8.66025447845459 15
endloop
endfacet
facet normal -0.9659258723258972 0.25881895422935486 0
outer loop
vertex 8.66025447845459 -5 15
vertex 10 0 15
vertex 8.66025447845459 -5 10
endloop
endfacet
facet normal -0.9659258723258972 0.25881895422935486 0
outer loop
vertex 10 0 15
vertex 10 0 10
vertex 8.66025447845459 -5 10
endloop
endfacet
facet normal -0.9659258723258972 0.25881895422935486 0
outer loop
vertex 8.66025447845459 -5 20
vertex 10 0 20
vertex 8.66025447845459 -5 15
endloop
endfacet
facet normal -0.9659258723258972 0.25881895422935486 0
outer loop
vertex 10 0 20
vertex 10 0 15
vertex 8.66025447845459 -5 15
endloop
endfacet
facet normal 0 0 1
outer loop
vertex 10 0 0
vertex 6.123233998228043e-16 10 0
vertex -5 8.66025447845459 0
endloop
endfacet
facet normal -0.25881895422935486 -0.9659258723258972 0
outer loop
vertex 6.123233998228043e-16 10 5
vertex 6.123233998228043e-16 10 0
vertex 5 8.66025447845459 0
endloop
endfacet
facet normal -0.25881895422935486 -0.9659258723258972 0
outer loop
vertex 5 8.66025447845459 5
vertex 6.123233998228043e-16 10 5
vertex 5 8.66025447845459 0
endloop
endfacet
facet normal -0.25881895422935486 -0.9659258723258972 0
outer loop
vertex 6.123233998228043e-16 10 10
vertex 6.123233998228043e-16 10 5
vertex 5 8.66025447845459 5
endloop
endfacet
facet normal -0.25881895422935486 -0.9659258723258972 0
outer loop
vertex 5 8.66025447845459 10
vertex 6.123233998228043e-16 10 10
vertex 5 8.66025447845459 5
endloop
endfacet
facet normal -0.9659258723258972 -0.25881895422935486 0
outer loop
vertex 10 0 5
vertex 8.66025447845459 5 5
vertex 10 0 0
endloop
endfacet
facet normal 0 0 1
outer loop
vertex 10 0 0
vertex 8.66025447845459 5 0
vertex 5 8.66025447845459 0
endloop
endfacet
facet normal -0.9659258723258972 -0.25881895422935486 0
outer loop
vertex 8.66025447845459 5 5
vertex 8.66025447845459 5 0
vertex 10 0 0
endloop
endfacet
facet normal -0.9659258723258972 -0.25881895422935486 0
outer loop
vertex 10 0 10
vertex 8.66025447845459 5 10
vertex 10 0 5
endloop
endfacet
facet normal -0.9659258723258972 -0.25881895422935486 0
outer loop
vertex 8.66025447845459 5 10
vertex 8.66025447845459 5 5
vertex 10 0 5
endloop
endfacet
facet normal 0 0 1
outer loop
vertex 10 0 0
vertex 5 8.66025447845459 0
vertex 6.123233998228043e-16 10 0
endloop
endfacet
facet normal -0.7071067690849304 -0.7071067690849304 0
outer loop
vertex 5 8.66025447845459 5
vertex 5 8.66025447845459 0
vertex 8.66025447845459 5 0
endloop
endfacet
facet normal -0.7071067690849304 -0.7071067690849304 0
outer loop
vertex 8.66025447845459 5 5
vertex 5 8.66025447845459 5
vertex 8.66025447845459 5 0
endloop
endfacet
facet normal -0.7071067690849304 -0.7071067690849304 0
outer loop
vertex 5 8.66025447845459 10
vertex 5 8.66025447845459 5
vertex 8.66025447845459 5 5
endloop
endfacet
facet normal -0.7071067690849304 -0.7071067690849304 0
outer loop
vertex 8.66025447845459 5 10
vertex 5 8.66025447845459 10
vertex 8.66025447845459 5 5
endloop
endfacet
facet normal 0 0 -1
outer loop
vertex 8.66025447845459 -5 20
vertex -5 8.66025447845459 20
vertex 6.123233998228043e-16 10 20
endloop
endfacet
facet normal 0 0 -1
outer loop
vertex 8.66025447845459 -5 20
vertex 6.123233998228043e-16 10 20
vertex 5 8.66025447845459 20
endloop
endfacet
facet normal -0.25881895422935486 -0.9659258723258972 0
outer loop
vertex 6.123233998228043e-16 10 15
vertex 6.123233998228043e-16 10 10
vertex 5 8.66025447845459 10
endloop
endfacet
facet normal -0.25881895422935486 -0.9659258723258972 0
outer loop
vertex 5 8.66025447845459 15
vertex 6.123233998228043e-16 10 15
vertex 5 8.66025447845459 10
endloop
endfacet
facet normal -0.25881895422935486 -0.9659258723258972 0
outer loop
vertex 6.123233998228043e-16 10 20
vertex 6.123233998228043e-16 10 15
vertex 5 8.66025447845459 15
endloop
endfacet
facet normal -0.25881895422935486 -0.9659258723258972 0
outer loop
vertex 5 8.66025447845459 20
vertex 6.123233998228043e-16 10 20
vertex 5 8.66025447845459 15
endloop
endfacet
facet normal -0.9659258723258972 -0.25881895422935486 0
outer loop
vertex 10 0 15
vertex 8.66025447845459 5 15
vertex 10 0 10
endloop
endfacet
facet normal -0.9659258723258972 -0.25881895422935486 0
outer loop
vertex 8.66025447845459 5 15
vertex 8.66025447845459 5 10
vertex 10 0 10
endloop
endfacet
facet normal 0 0 -1
outer loop
vertex 8.66025447845459 -5 20
vertex 5 8.66025447845459 20
vertex 8.66025447845459 5 20
endloop
endfacet
facet normal 0 0 -1
outer loop
vertex 8.66025447845459 -5 20
vertex 8.66025447845459 5 20
vertex 10 0 20
endloop
endfacet
facet normal -0.9659258723258972 -0.25881895422935486 0
outer loop
vertex 10 0 20
vertex 8.66025447845459 5 20
vertex 10 0 15
endloop
endfacet
facet normal -0.9659258723258972 -0.25881895422935486 0
outer loop
vertex 8.66025447845459 5 20
vertex 8.66025447845459 5 15
vertex 10 0 15
endloop
endfacet
facet normal -0.7071067690849304 -0.7071067690849304 0
outer loop
vertex 5 8.66025447845459 15
vertex 5 8.66025447845459 10
vertex 8.66025447845459 5 10
endloop
endfacet
facet normal -0.7071067690849304 -0.7071067690849304 0
outer loop
vertex 8.66025447845459 5 15
vertex 5 8.66025447845459 15
vertex 8.66025447845459 5 10
endloop
endfacet
facet normal -0.7071067690849304 -0.7071067690849304 0
outer loop
vertex 5 8.66025447845459 20
vertex 5 8.66025447845459 15
vertex 8.66025447845459 5 15
endloop
endfacet
facet normal -0.7071067690849304 -0.7071067690849304 0
outer loop
vertex 8.66025447845459 5 20
vertex 5 8.66025447845459 20
vertex 8.66025447845459 5 15
endloop
endfacet
endsolid JSCAD
